<svg width="24" height="23" viewBox="0 0 24 23" fill="none" xmlns="http://www.w3.org/2000/svg">
<path d="M10.793 1.87939C11.1925 0.649869 12.9319 0.649869 13.3314 1.87939L15.1333 7.425C15.312 7.97486 15.8244 8.34714 16.4025 8.34714H22.2335C23.5263 8.34714 24.0638 10.0015 23.018 10.7613L18.3006 14.1887C17.8328 14.5285 17.6371 15.1309 17.8158 15.6808L19.6177 21.2264C20.0172 22.4559 18.6099 23.4783 17.564 22.7184L12.8466 19.2911C12.3789 18.9512 11.7455 18.9512 11.2778 19.2911L6.56042 22.7184C5.51453 23.4783 4.10729 22.4559 4.50679 21.2264L6.30867 15.6808C6.48733 15.1309 6.2916 14.5285 5.82387 14.1887L1.10648 10.7613C0.0605931 10.0015 0.59811 8.34714 1.8909 8.34714H7.72191C8.30007 8.34714 8.81247 7.97486 8.99113 7.425L10.793 1.87939Z" fill="#FFB028"/>
</svg>
