<svg width="47" height="32" viewBox="0 0 47 32" fill="none" xmlns="http://www.w3.org/2000/svg">
<path d="M0 2.10715C0 0.943403 0.943402 0 2.10715 0H44.6012C45.7649 0 46.7083 0.943402 46.7083 2.10715V22.4263C46.7083 23.3343 46.1266 24.1403 45.2647 24.4262L24.0176 31.4748C23.5869 31.6177 23.1215 31.6177 22.6907 31.4748L1.44367 24.4262C0.581768 24.1403 0 23.3343 0 22.4263V2.10715Z" fill="#50AFFF"/>
<path d="M4.39014 5.44347C4.39014 4.86159 4.86184 4.38989 5.44371 4.38989H41.2651C41.847 4.38989 42.3187 4.86159 42.3187 5.44347V19.7673C42.3187 20.2121 42.0393 20.609 41.6206 20.7591L23.7099 27.1777C23.4801 27.26 23.2288 27.26 22.999 27.1777L5.08828 20.7591C4.66952 20.609 4.39014 20.2121 4.39014 19.7673V5.44347Z" fill="white"/>
</svg>
