<svg width="21" height="20" viewBox="0 0 21 20" fill="none" xmlns="http://www.w3.org/2000/svg">
<path d="M10.1252 5.89746V9.99995L12.6893 12.564" stroke="#212D40" stroke-width="1.5" stroke-linecap="round" stroke-linejoin="round"/>
<path d="M2.2671 4.73954L1.49788 4.74262C1.49869 4.94539 1.57952 5.13963 1.72281 5.28311C1.86609 5.42658 2.06023 5.50768 2.26299 5.50876L2.2671 4.73954ZM4.87423 5.52107C4.97525 5.52154 5.07536 5.50211 5.16887 5.46389C5.26238 5.42567 5.34744 5.3694 5.4192 5.29831C5.49096 5.22721 5.54802 5.14268 5.58711 5.04953C5.6262 4.95639 5.64657 4.85645 5.64704 4.75544C5.64751 4.65442 5.62808 4.55431 5.58986 4.4608C5.55164 4.36729 5.49537 4.28223 5.42428 4.21047C5.35318 4.13871 5.26865 4.08165 5.1755 4.04256C5.08236 4.00347 4.98243 3.9831 4.88141 3.98263L4.87423 5.52107ZM3.02298 2.1242C3.02244 2.02319 3.00201 1.92327 2.96286 1.83015C2.9237 1.73703 2.86659 1.65253 2.79478 1.58149C2.72297 1.51044 2.63787 1.45423 2.54434 1.41607C2.45081 1.37791 2.35068 1.35855 2.24966 1.35909C2.14865 1.35963 2.04873 1.38006 1.95561 1.41921C1.86249 1.45837 1.77799 1.51548 1.70694 1.58729C1.6359 1.6591 1.57969 1.7442 1.54153 1.83773C1.50337 1.93126 1.48401 2.03139 1.48455 2.13241L3.02298 2.1242ZM1.743 8.75383C1.75774 8.6533 1.75242 8.55084 1.72734 8.45238C1.70226 8.35392 1.65792 8.2614 1.59688 8.18017C1.53584 8.09894 1.45932 8.03061 1.37172 7.97912C1.28413 7.92763 1.1872 7.894 1.08654 7.88018C0.985876 7.86636 0.883473 7.87262 0.785244 7.8986C0.687014 7.92458 0.594905 7.96977 0.514236 8.03154C0.433567 8.09332 0.365936 8.17047 0.315249 8.25853C0.264562 8.34659 0.231825 8.44382 0.218926 8.54461L1.743 8.75383ZM17.1632 2.96214C13.2454 -0.955744 6.9142 -0.996769 3.02195 2.8965L4.10912 3.98366C7.39111 0.702689 12.7479 0.722175 16.0761 4.0493L17.1632 2.96214ZM3.08759 17.0378C7.00548 20.9557 13.3366 20.9967 17.2289 17.1034L16.1417 16.0163C12.8597 19.2972 7.5029 19.2778 4.17476 15.9506L3.08759 17.0378ZM17.2289 17.1034C21.1211 13.2112 21.0811 6.88002 17.1632 2.96214L16.0761 4.0493C19.4032 7.37745 19.4227 12.7343 16.1417 16.0163L17.2289 17.1034ZM3.02195 2.8965L1.72249 4.19494L2.81068 5.2821L4.10912 3.98366L3.02195 2.8965ZM2.26299 5.50876L4.87423 5.52107L4.88141 3.98263L2.2712 3.97032L2.26299 5.50876ZM3.03631 4.73544L3.02298 2.1242L1.48455 2.13241L1.49788 4.74262L3.03631 4.73544ZM0.217901 8.54358C0.00701673 10.0847 0.156311 11.6537 0.654055 13.1273C1.1518 14.601 1.98444 15.9392 3.08657 17.0368L4.17373 15.9496C3.23949 15.0198 2.53365 13.8859 2.1117 12.6371C1.68975 11.3884 1.56319 10.0587 1.74198 8.75281L0.217901 8.54358Z" fill="#212D40"/>
</svg>
