<svg width="19" height="20" viewBox="0 0 19 20" fill="none" xmlns="http://www.w3.org/2000/svg">
<path fill-rule="evenodd" clip-rule="evenodd" d="M8.79473 2.00933C9.05788 1.80424 9.39557 1.6875 9.75 1.6875C10.1044 1.6875 10.4421 1.80424 10.7053 2.00933L10.7076 2.01115L16.9402 6.82908L16.9407 6.8294C17.2988 7.10584 17.5 7.5187 17.5 7.94567V16.7475C17.5 17.5192 16.8456 18.1875 15.9837 18.1875H3.51631C2.65435 18.1875 2 17.5192 2 16.7475V7.94567C2 7.51865 2.20127 7.10562 2.55864 6.82911L2.55885 6.82896L8.79234 2.01119L8.79473 2.00933ZM9.75 0.1875C9.07073 0.1875 8.40711 0.410127 7.8739 0.825232L7.87265 0.826211L1.64136 5.64228L1.64115 5.64243C0.925533 6.19592 0.5 7.04279 0.5 7.94567V16.7475C0.5 18.3959 1.87502 19.6875 3.51631 19.6875H15.9837C17.625 19.6875 19 18.3959 19 16.7475V7.94567C19 7.04266 18.5743 6.19554 17.8572 5.64199L11.6274 0.826211L11.626 0.825184C11.0928 0.410109 10.4292 0.1875 9.75 0.1875ZM6.5 13.4375C6.08579 13.4375 5.75 13.7733 5.75 14.1875C5.75 14.6017 6.08579 14.9375 6.5 14.9375H12.5C12.9142 14.9375 13.25 14.6017 13.25 14.1875C13.25 13.7733 12.9142 13.4375 12.5 13.4375H6.5Z" fill="#212D40"/>
</svg>
