<svg width="22" height="22" viewBox="0 0 22 22" fill="none" xmlns="http://www.w3.org/2000/svg">
<path d="M11 21C16.523 21 21 16.523 21 11C21 5.477 16.523 1 11 1C5.477 1 1 5.477 1 11C1 16.523 5.477 21 11 21Z" stroke="#212D40" stroke-width="1.5" stroke-linejoin="round"/>
<path d="M7 12C7.55228 12 8 11.5523 8 11C8 10.4477 7.55228 10 7 10C6.44772 10 6 10.4477 6 11C6 11.5523 6.44772 12 7 12Z" fill="#212D40"/>
<path d="M11 12C11.5523 12 12 11.5523 12 11C12 10.4477 11.5523 10 11 10C10.4477 10 10 10.4477 10 11C10 11.5523 10.4477 12 11 12Z" fill="#212D40"/>
<path d="M15 12C15.5523 12 16 11.5523 16 11C16 10.4477 15.5523 10 15 10C14.4477 10 14 10.4477 14 11C14 11.5523 14.4477 12 15 12Z" fill="#212D40"/>
</svg>
