<svg width="21" height="21" viewBox="0 0 21 21" fill="none" xmlns="http://www.w3.org/2000/svg">
<path d="M10.25 14.3002C4.77802 14.3002 3.80902 8.84721 3.63802 4.52091C3.58957 3.31821 3.56582 2.71591 4.01802 2.16017C4.46927 1.60346 5.00982 1.51226 6.09187 1.32986C7.46636 1.10471 8.85722 0.994447 10.25 1.00022C11.9448 1.00022 13.3404 1.14936 14.4082 1.32986C15.4902 1.51226 16.0308 1.60346 16.483 2.16017C16.9352 2.71687 16.9105 3.31821 16.863 4.52091C16.692 8.84721 15.723 14.3002 10.251 14.3002H10.25Z" stroke="#212D40" stroke-width="1.5"/>
<path d="M10.25 14.3003V17.1503" stroke="#212D40" stroke-width="1.5" stroke-linecap="round"/>
<path d="M13.575 20.0002H6.92505L7.24805 18.389C7.29108 18.1738 7.40734 17.98 7.57707 17.8408C7.7468 17.7015 7.95951 17.6254 8.17905 17.6252H12.321C12.5406 17.6254 12.7533 17.7015 12.923 17.8408C13.0928 17.98 13.209 18.1738 13.252 18.389L13.575 20.0002Z" stroke="#212D40" stroke-width="1.5" stroke-linecap="round" stroke-linejoin="round"/>
<path d="M16.8999 3.8501L17.8014 4.1503C18.7419 4.4638 19.2122 4.62055 19.481 4.9939C19.7499 5.36725 19.7499 5.8641 19.7499 6.854V6.92335C19.7499 7.74035 19.7499 8.1498 19.5532 8.4842C19.3566 8.8186 18.9984 9.01715 18.284 9.4152L15.4749 10.9751" stroke="#212D40" stroke-width="1.5"/>
<path d="M3.6 3.8501L2.69845 4.1503C1.75795 4.4638 1.2877 4.62055 1.01885 4.9939C0.75 5.36725 0.75 5.8641 0.75 6.854V6.92335C0.75 7.74035 0.75 8.1498 0.94665 8.4842C1.1433 8.8186 1.50145 9.01715 2.21585 9.4152L5.025 10.9751" stroke="#212D40" stroke-width="1.5"/>
<path d="M15.95 20.0002H4.55005" stroke="#212D40" stroke-width="1.5" stroke-linecap="round"/>
</svg>
