<svg width="20" height="20" viewBox="0 0 20 20" fill="none" xmlns="http://www.w3.org/2000/svg">
<path d="M15.4041 15.535L18.875 19M17.7785 9.4375C17.7785 11.6753 16.8881 13.8214 15.3031 15.4037C13.718 16.9861 11.5683 17.875 9.32676 17.875C7.08522 17.875 4.93548 16.9861 3.35046 15.4037C1.76545 13.8214 0.875 11.6753 0.875 9.4375C0.875 7.19974 1.76545 5.05362 3.35046 3.47129C4.93548 1.88895 7.08522 1 9.32676 1C11.5683 1 13.718 1.88895 15.3031 3.47129C16.8881 5.05362 17.7785 7.19974 17.7785 9.4375Z" stroke="#212D40" stroke-width="1.5" stroke-linecap="round" stroke-linejoin="round"/>
<path d="M4.875 9C4.875 7.93913 5.29643 6.92172 6.04657 6.17157C6.79672 5.42143 7.81413 5 8.875 5" stroke="#212D40" stroke-width="1.5" stroke-linecap="round" stroke-linejoin="round"/>
</svg>
