<svg width="18" height="17" viewBox="0 0 18 17" fill="none" xmlns="http://www.w3.org/2000/svg">
<path d="M13.0003 7.24379C13.0003 6.967 13.0003 6.82861 13.0419 6.70541C13.1627 6.34703 13.4818 6.20863 13.8018 6.06304C14.1602 5.89905 14.3394 5.81745 14.5178 5.80305C14.7194 5.78705 14.9218 5.83025 15.0946 5.92705C15.3234 6.05504 15.4834 6.29983 15.6466 6.49822C16.4009 7.41498 16.7785 7.87336 16.9161 8.37814C17.0281 8.78612 17.0281 9.2133 16.9161 9.62048C16.7153 10.358 16.0793 10.9756 15.6082 11.5484C15.3674 11.8404 15.2466 11.9868 15.0946 12.0724C14.9188 12.1698 14.7181 12.213 14.5178 12.1964C14.3394 12.182 14.1602 12.1004 13.801 11.9364C13.481 11.7908 13.1627 11.6524 13.0419 11.294C13.0003 11.1708 13.0003 11.0324 13.0003 10.7556V7.24379ZM5.00063 7.24379C5.00063 6.895 4.99103 6.58222 4.70944 6.33743C4.60704 6.24863 4.47105 6.18704 4.19986 6.06304C3.84068 5.89985 3.66149 5.81745 3.48309 5.80305C2.94952 5.75985 2.66233 6.12464 2.35514 6.49902C1.59998 7.41498 1.2224 7.87336 1.084 8.37894C0.97265 8.78557 0.97265 9.21465 1.084 9.62128C1.28559 10.358 1.92236 10.9764 2.39274 11.5484C2.68953 11.9084 2.97352 12.2372 3.48309 12.1964C3.66149 12.182 3.84068 12.1004 4.19986 11.9364C4.47185 11.8132 4.60704 11.7508 4.70944 11.662C4.99103 11.4172 5.00063 11.1044 5.00063 10.7564V7.24379Z" stroke="#50AFFF" stroke-width="1.5" stroke-linecap="round" stroke-linejoin="round"/>
<path d="M3.40063 5.79979C3.40063 3.1487 5.90772 1 9.00038 1C12.093 1 14.6001 3.1487 14.6001 5.79979M14.6001 12.1995V12.8395C14.6001 14.253 13.1682 15.3994 11.4003 15.3994H9.80035" stroke="#50AFFF" stroke-width="1.5" stroke-linecap="round" stroke-linejoin="round"/>
</svg>
