<svg width="16" height="19" viewBox="0 0 16 19" fill="none" xmlns="http://www.w3.org/2000/svg">
<path d="M7.9999 12V14.2M3.5999 7.6V5.4C3.5999 4.23305 4.06347 3.11389 4.88863 2.28873C5.71379 1.46357 6.83295 1 7.9999 1C9.16686 1 10.286 1.46357 11.1112 2.28873C11.9363 3.11389 12.3999 4.23305 12.3999 5.4V7.6M2.4999 17.5H13.4999C13.7916 17.5 14.0714 17.3841 14.2777 17.1778C14.484 16.9715 14.5999 16.6917 14.5999 16.4V8.7C14.5999 8.40826 14.484 8.12847 14.2777 7.92218C14.0714 7.71589 13.7916 7.6 13.4999 7.6H2.4999C2.20816 7.6 1.92838 7.71589 1.72209 7.92218C1.5158 8.12847 1.3999 8.40826 1.3999 8.7V16.4C1.3999 16.6917 1.5158 16.9715 1.72209 17.1778C1.92838 17.3841 2.20816 17.5 2.4999 17.5Z" stroke="#50AFFF" stroke-width="1.5" stroke-linecap="round" stroke-linejoin="round"/>
</svg>
