<svg width="16" height="20" viewBox="0 0 16 20" fill="none" xmlns="http://www.w3.org/2000/svg">
<path d="M8 9.53598L6.21143 10.8804C6.11162 10.9441 6.01562 10.9452 5.92343 10.8837C5.83124 10.8221 5.80419 10.7415 5.84229 10.6418L6.51886 8.45982L4.73829 7.21767C4.64305 7.15391 4.61829 7.06963 4.664 6.96484C4.70971 6.86004 4.78438 6.80728 4.888 6.80655H7.104L7.78057 4.63773C7.81867 4.53806 7.89181 4.48823 8 4.48823C8.10819 4.48823 8.18133 4.53806 8.21943 4.63773L8.89714 6.80655H11.1051C11.2095 6.80655 11.2857 6.85894 11.3337 6.96374C11.3817 7.06853 11.3577 7.15281 11.2617 7.21657L9.47543 8.45982L10.152 10.6418C10.1901 10.7415 10.163 10.8221 10.0709 10.8837C9.97867 10.9452 9.88267 10.9441 9.78286 10.8804L8 9.53598ZM8 18.6455L3.47086 19.947C3.17752 20.0474 2.90667 20.0052 2.65829 19.8205C2.40991 19.6359 2.28571 19.3955 2.28571 19.0994V13.0492C1.5619 12.3647 1 11.563 0.6 10.644C0.2 9.72505 0 8.74196 0 7.69474C0 5.54974 0.775619 3.73122 2.32686 2.23917C3.8781 0.747123 5.76914 0.000733372 8 5.39376e-07C10.2309 -0.000732293 12.1219 0.745291 13.6731 2.23807C15.2244 3.73085 16 5.54974 16 7.69474C16 8.74196 15.8 9.72505 15.4 10.644C15 11.563 14.4381 12.3643 13.7143 13.0481V19.0983C13.7143 19.3944 13.5901 19.6348 13.3417 19.8195C13.0933 20.0041 12.8229 20.0463 12.5303 19.9459L8 18.6455ZM8 14.2902C9.90476 14.2902 11.5238 13.649 12.8571 12.3665C14.1905 11.0841 14.8571 9.52682 14.8571 7.69474C14.8571 5.86266 14.1905 4.30539 12.8571 3.02293C11.5238 1.74048 9.90476 1.09925 8 1.09925C6.09524 1.09925 4.47619 1.74048 3.14286 3.02293C1.80952 4.30539 1.14286 5.86266 1.14286 7.69474C1.14286 9.52682 1.80952 11.0841 3.14286 12.3665C4.47619 13.649 6.09524 14.2902 8 14.2902ZM3.42857 18.7356L8 17.5033L12.5714 18.7356V13.9758C11.9345 14.4265 11.2263 14.7746 10.4469 15.0201C9.66895 15.2664 8.85333 15.3895 8 15.3895C7.14667 15.3895 6.33105 15.2667 5.55314 15.0212C4.77524 14.7757 4.06705 14.4273 3.42857 13.9758V18.7356Z" fill="#50AFFF"/>
</svg>
