<svg width="22" height="22" viewBox="0 0 22 22" fill="none" xmlns="http://www.w3.org/2000/svg">
<path d="M7.19214 10.4472C6.8767 10.4472 6.62098 10.7029 6.62098 11.0183C6.62098 11.3338 6.8767 11.5895 7.19214 11.5895L7.19214 10.4472ZM15.2114 11.4222C15.4344 11.1991 15.4344 10.8375 15.2114 10.6144L11.5766 6.97964C11.3535 6.75659 10.9919 6.75659 10.7689 6.97964C10.5458 7.20269 10.5458 7.56433 10.7689 7.78738L13.9998 11.0183L10.7689 14.2492C10.5458 14.4723 10.5458 14.8339 10.7689 15.057C10.9919 15.28 11.3535 15.28 11.5766 15.057L15.2114 11.4222ZM7.19214 11.5895L14.8075 11.5895L14.8075 10.4472L7.19214 10.4472L7.19214 11.5895Z" fill="#212D40"/>
</svg>
