<svg width="237" height="273" viewBox="0 0 237 273" fill="none" xmlns="http://www.w3.org/2000/svg">
<path d="M135.692 159.662L133.019 180.72L129.085 156.798C110.179 149.544 88.0746 148.135 88.0746 148.135C88.0746 148.135 83.1965 193.823 99.3021 212.928C115.408 232.032 132.388 229.128 146.398 217.317C160.408 205.506 166.141 189.261 150.036 170.157C146.451 165.905 141.391 162.456 135.692 159.662Z" fill="#F2F2F2"/>
<path d="M130.45 183.904L131.243 184.846C140.415 195.839 145.769 205.935 147.217 215.002C147.24 215.134 147.255 215.265 147.278 215.397L146.664 215.492L146.073 215.576C144.617 205.694 138.301 195.317 130.303 185.726C130.048 185.414 129.79 185.098 129.522 184.79C126.1 180.76 122.407 176.88 118.662 173.242C118.375 172.958 118.079 172.673 117.783 172.388C112.815 167.612 107.802 163.274 103.324 159.608C103.009 159.348 102.689 159.091 102.373 158.839C94.768 152.666 88.8448 148.544 87.5241 147.64C87.365 147.527 87.2749 147.467 87.2545 147.452L87.5913 146.953L87.592 146.944L87.9334 146.441C87.9538 146.456 88.2571 146.655 88.8042 147.039C90.8593 148.465 96.3801 152.383 103.225 157.921C103.533 158.172 103.853 158.429 104.168 158.689C107.805 161.66 111.778 165.058 115.781 168.765C116.788 169.694 117.769 170.622 118.724 171.547C119.025 171.828 119.321 172.113 119.608 172.397C123.657 176.329 127.27 180.164 130.45 183.904Z" fill="white"/>
<path d="M103.225 157.921C102.949 158.226 102.667 158.535 102.373 158.839C101.575 159.665 100.736 160.45 99.8575 161.191C96.1193 164.351 91.7197 166.632 86.9829 167.866C86.9954 168.278 87.0079 168.69 87.0197 169.111C92.034 167.85 96.6939 165.46 100.644 162.123C101.581 161.333 102.476 160.493 103.324 159.608C103.614 159.308 103.895 158.999 104.168 158.689C106.435 156.146 108.302 153.273 109.706 150.169C109.289 150.082 108.881 149.995 108.481 149.909C107.134 152.824 105.362 155.524 103.225 157.921Z" fill="white"/>
<path d="M118.724 171.547C118.418 171.837 118.105 172.117 117.783 172.388C117.689 172.476 117.586 172.562 117.489 172.645C113.433 176.063 108.612 178.451 103.435 179.603C98.2576 180.756 92.8785 180.64 87.7561 179.264C87.8015 179.696 87.8469 180.129 87.9009 180.562C93.1545 181.894 98.6499 181.955 103.932 180.74C109.214 179.526 114.131 177.07 118.275 173.577C118.405 173.467 118.536 173.357 118.662 173.242C118.985 172.962 119.298 172.682 119.608 172.397C124.371 167.946 127.75 162.217 129.343 155.896C128.962 155.747 128.581 155.597 128.195 155.452C126.672 161.624 123.38 167.218 118.724 171.547Z" fill="white"/>
<path d="M130.45 183.904C130.147 184.207 129.836 184.501 129.522 184.79C129.184 185.099 128.842 185.403 128.493 185.697C123.038 190.285 116.245 192.982 109.129 193.386C102.014 193.789 94.9588 191.877 89.021 187.935C89.1296 188.49 89.2342 189.039 89.3521 189.586C95.4733 193.352 102.626 195.094 109.793 194.563C116.961 194.032 123.779 191.256 129.279 186.63C129.628 186.335 129.974 186.036 130.303 185.726C130.626 185.438 130.937 185.144 131.243 184.846C137.4 178.773 141.019 170.588 141.367 161.948C140.979 161.685 140.58 161.439 140.177 161.189C140.012 169.737 136.523 177.885 130.45 183.904Z" fill="white"/>
<path d="M235.761 53.593V19.647C235.761 14.4363 233.691 9.43905 230.007 5.75452C226.322 2.07 221.325 3.59797e-05 216.114 3.89406e-10H144.195C141.615 -1.6243e-05 139.06 0.508154 136.676 1.4955C134.293 2.48284 132.127 3.93002 130.302 5.75441C128.478 7.57879 127.031 9.74466 126.043 12.1283C125.056 14.512 124.548 17.0669 124.548 19.6469V42.1915H123.284V50.1351H124.548V58.6082H123.284V70.7884H124.548V76.0841H123.284V88.2643H124.548V205.877C124.548 208.457 125.056 211.012 126.043 213.396C127.031 215.78 128.478 217.946 130.302 219.77C132.127 221.594 134.293 223.041 136.676 224.029C139.06 225.016 141.615 225.524 144.195 225.524H216.114C218.694 225.524 221.249 225.016 223.633 224.029C226.016 223.042 228.182 221.594 230.007 219.77C231.831 217.946 233.278 215.78 234.266 213.396C235.253 211.012 235.761 208.458 235.761 205.877V77.7564H237V53.593H235.761Z" fill="#212D40"/>
<path d="M216.907 5.11148H207.519C207.95 6.16992 208.115 7.31829 207.999 8.45542C207.882 9.59256 207.487 10.6836 206.85 11.6323C206.212 12.5811 205.351 13.3585 204.342 13.896C203.333 14.4336 202.208 14.7148 201.065 14.7148H159.863C158.72 14.7148 157.595 14.4336 156.586 13.896C155.577 13.3585 154.716 12.5811 154.078 11.6323C153.441 10.6836 153.046 9.59255 152.929 8.45542C152.813 7.31828 152.978 6.16991 153.409 5.11146H144.641C140.75 5.11146 137.018 6.65727 134.266 9.40884C131.515 12.1604 129.969 15.8923 129.969 19.7836V205.741C129.969 207.668 130.348 209.575 131.086 211.356C131.823 213.136 132.904 214.753 134.266 216.116C135.629 217.478 137.246 218.559 139.026 219.296C140.806 220.033 142.714 220.413 144.641 220.413H216.907C220.798 220.413 224.53 218.867 227.281 216.116C230.033 213.364 231.579 209.632 231.579 205.741V19.7836C231.579 17.8569 231.199 15.9489 230.462 14.1688C229.725 12.3887 228.644 10.7713 227.281 9.40884C225.919 8.0464 224.301 6.96566 222.521 6.22832C220.741 5.49097 218.833 5.11147 216.907 5.11148Z" fill="white"/>
<path d="M218.724 69.8264H142.823C142.294 69.8258 141.787 69.6154 141.413 69.2414C141.039 68.8674 140.829 68.3603 140.828 67.8314V37.0341C140.829 36.5051 141.039 35.9981 141.413 35.6241C141.787 35.2501 142.294 35.0397 142.823 35.0391H218.724C219.253 35.0397 219.76 35.25 220.134 35.6241C220.508 35.9981 220.719 36.5051 220.719 37.0341V67.8314C220.719 68.3603 220.508 68.8674 220.134 69.2414C219.76 69.6154 219.253 69.8258 218.724 69.8264Z" fill="#50BDB4"/>
<path d="M211.497 84.4005H150.051C149.469 84.4005 148.91 84.1693 148.499 83.7578C148.087 83.3462 147.856 82.788 147.856 82.206C147.856 81.624 148.087 81.0658 148.499 80.6542C148.91 80.2427 149.469 80.0115 150.051 80.0115H211.497C212.079 80.0115 212.637 80.2427 213.049 80.6542C213.46 81.0658 213.692 81.624 213.692 82.206C213.692 82.788 213.46 83.3462 213.049 83.7578C212.637 84.1693 212.079 84.4005 211.497 84.4005Z" fill="#50BDB4"/>
<path d="M211.497 95.5727H150.051C149.416 95.5727 148.807 95.3204 148.358 94.8715C147.909 94.4225 147.657 93.8136 147.657 93.1786C147.657 92.5437 147.909 91.9348 148.358 91.4858C148.807 91.0368 149.416 90.7846 150.051 90.7846H211.497C212.132 90.7846 212.741 91.0368 213.19 91.4858C213.639 91.9348 213.891 92.5437 213.891 93.1786C213.891 93.8136 213.639 94.4225 213.19 94.8715C212.741 95.3204 212.132 95.5727 211.497 95.5727Z" fill="#E4E4E4"/>
<path d="M211.497 106.545H150.051C149.416 106.545 148.807 106.293 148.358 105.844C147.909 105.395 147.657 104.786 147.657 104.151C147.657 103.516 147.909 102.907 148.358 102.458C148.807 102.009 149.416 101.757 150.051 101.757H211.497C212.132 101.757 212.741 102.009 213.19 102.458C213.639 102.907 213.891 103.516 213.891 104.151C213.891 104.786 213.639 105.395 213.19 105.844C212.741 106.293 212.132 106.545 211.497 106.545Z" fill="#E4E4E4"/>
<path d="M218.724 161.996H142.823C142.294 161.996 141.787 161.785 141.413 161.411C141.039 161.037 140.829 160.53 140.828 160.001V129.204C140.829 128.675 141.039 128.168 141.413 127.794C141.787 127.42 142.294 127.21 142.823 127.209H218.724C219.253 127.21 219.76 127.42 220.134 127.794C220.508 128.168 220.719 128.675 220.719 129.204V160.001C220.719 160.53 220.508 161.037 220.134 161.411C219.76 161.785 219.253 161.996 218.724 161.996Z" fill="#E4E4E4"/>
<path d="M211.497 176.77H150.051C149.416 176.77 148.807 176.518 148.358 176.069C147.909 175.62 147.657 175.011 147.657 174.376C147.657 173.741 147.909 173.132 148.358 172.683C148.807 172.234 149.416 171.982 150.051 171.982H211.497C212.132 171.982 212.741 172.234 213.19 172.683C213.639 173.132 213.891 173.741 213.891 174.376C213.891 175.011 213.639 175.62 213.19 176.069C212.741 176.518 212.132 176.77 211.497 176.77Z" fill="#E4E4E4"/>
<path d="M211.497 187.743H150.051C149.416 187.743 148.807 187.49 148.358 187.041C147.909 186.592 147.657 185.983 147.657 185.349C147.657 184.714 147.909 184.105 148.358 183.656C148.807 183.207 149.416 182.954 150.051 182.954H211.497C212.132 182.954 212.741 183.207 213.19 183.656C213.639 184.105 213.891 184.714 213.891 185.349C213.891 185.983 213.639 186.592 213.19 187.041C212.741 187.49 212.132 187.743 211.497 187.743Z" fill="#E4E4E4"/>
<path d="M211.497 198.715H150.051C149.416 198.715 148.807 198.463 148.358 198.014C147.909 197.565 147.657 196.956 147.657 196.321C147.657 195.686 147.909 195.077 148.358 194.628C148.807 194.179 149.416 193.927 150.051 193.927H211.497C212.132 193.927 212.741 194.179 213.19 194.628C213.639 195.077 213.891 195.686 213.891 196.321C213.891 196.956 213.639 197.565 213.19 198.014C212.741 198.463 212.132 198.715 211.497 198.715Z" fill="#E4E4E4"/>
<path d="M226.961 70.8728L220.103 81.1663C219.939 81.4135 219.716 81.616 219.454 81.7554C219.193 81.8948 218.901 81.9668 218.604 81.9648C218.251 81.9649 217.906 81.8606 217.613 81.665C217.319 81.4693 217.09 81.1912 216.954 80.8656C216.906 80.7558 216.87 80.6411 216.847 80.5235C216.754 80.0564 216.85 79.5715 217.114 79.1751L223.973 68.8817C224.103 68.6854 224.271 68.5169 224.467 68.3856C224.663 68.2544 224.883 68.163 225.114 68.1167C225.345 68.0704 225.584 68.0701 225.815 68.1158C226.046 68.1615 226.266 68.2523 226.462 68.383C226.659 68.5138 226.827 68.6819 226.958 68.8778C227.09 69.0737 227.181 69.2935 227.227 69.5247C227.274 69.7559 227.274 69.9939 227.228 70.2252C227.183 70.4566 227.092 70.6766 226.961 70.8728Z" fill="#50BDB4"/>
<path d="M220.656 80.3361L219.267 82.4073L216.811 84.5727C216.649 84.7154 216.445 84.8006 216.23 84.8152C216.015 84.8298 215.801 84.7729 215.621 84.6533C215.442 84.5337 215.307 84.3582 215.238 84.1541C215.168 83.9499 215.168 83.7286 215.238 83.5245L216.313 80.3771L217.667 78.3449L220.656 80.3361Z" fill="#212D40"/>
<path d="M227.264 65.4747L223.827 68.5043C223.714 68.6035 223.626 68.7272 223.569 68.8659C223.512 69.0046 223.488 69.1546 223.498 69.3043C223.508 69.4539 223.552 69.5993 223.627 69.729C223.702 69.8588 223.807 69.9696 223.931 70.0527L224.582 70.4861L222.701 73.3085C222.672 73.3521 222.652 73.401 222.642 73.4524C222.632 73.5038 222.632 73.5567 222.642 73.6081C222.652 73.6594 222.673 73.7083 222.702 73.7518C222.731 73.7954 222.768 73.8327 222.812 73.8618C222.856 73.8908 222.904 73.911 222.956 73.9212C223.007 73.9313 223.06 73.9312 223.112 73.921C223.163 73.9107 223.212 73.8904 223.255 73.8612C223.299 73.832 223.336 73.7946 223.365 73.751L225.246 70.9286L225.896 71.3619C226.112 71.5054 226.376 71.5577 226.63 71.5072C226.884 71.4567 227.108 71.3077 227.252 71.0926C227.3 71.021 227.338 70.9434 227.365 70.862L228.838 66.5233C228.907 66.3191 228.907 66.0978 228.837 65.8937C228.768 65.6896 228.633 65.5141 228.454 65.3946C228.274 65.275 228.06 65.2181 227.845 65.2326C227.63 65.2471 227.426 65.3322 227.264 65.4747Z" fill="#212D40"/>
<path d="M183.467 8.58981H172.694C172.482 8.58981 172.28 8.50573 172.13 8.35608C171.98 8.20642 171.896 8.00344 171.896 7.7918C171.896 7.58015 171.98 7.37718 172.13 7.22752C172.28 7.07787 172.482 6.99379 172.694 6.99379H183.467C183.679 6.99379 183.882 7.07787 184.031 7.22752C184.181 7.37718 184.265 7.58015 184.265 7.7918C184.265 8.00344 184.181 8.20642 184.031 8.35608C183.882 8.50573 183.679 8.58981 183.467 8.58981Z" fill="white"/>
<path d="M188.854 8.58981C189.295 8.58981 189.652 8.23253 189.652 7.7918C189.652 7.35107 189.295 6.99379 188.854 6.99379C188.413 6.99379 188.056 7.35107 188.056 7.7918C188.056 8.23253 188.413 8.58981 188.854 8.58981Z" fill="white"/>
<path d="M165.195 167.693C164.584 168.714 163.756 169.589 162.77 170.255C161.784 170.922 160.664 171.364 159.489 171.551C158.314 171.737 157.112 171.664 155.968 171.336C154.824 171.008 153.766 170.433 152.868 169.652L127.775 184.044L128.71 169.041L152.396 157.674C153.808 156.253 155.692 155.399 157.692 155.275C159.692 155.15 161.668 155.764 163.245 156.999C164.823 158.234 165.893 160.004 166.253 161.975C166.612 163.946 166.236 165.981 165.195 167.693Z" fill="#FFB8B8"/>
<path d="M92.5481 225.347C99.9915 235.765 99.7252 253.194 97.6485 272.271H62.4555L60.9254 268.7L58.8852 272.271H25.7324C25.7324 272.271 28.2826 223.817 32.873 222.286C37.4634 220.756 92.5481 225.347 92.5481 225.347Z" fill="#212D40"/>
<path d="M62.4555 116.5C52.5964 116.5 44.604 108.507 44.604 98.6482C44.604 88.7891 52.5964 80.7967 62.4555 80.7967C72.3146 80.7967 80.307 88.7891 80.307 98.6482C80.307 108.507 72.3146 116.5 62.4555 116.5Z" fill="#FFB8B8"/>
<path d="M49.5531 121.131L46.0621 127.822L21.9163 138.586L28.2633 200.008L30.9346 206.369L29.4913 211.892L32.971 215.969C29.4781 219.129 29.0345 222.438 30.9346 225.86L42.0538 228.407C42.0538 228.407 103.879 233.905 98.6686 224.327C92.9755 213.861 91.5258 182.954 104.094 166.438C114.764 152.417 106.572 134.222 106.572 134.222L81.2626 126.659L71.9534 121.131L49.5531 121.131Z" fill="#212D40"/>
<path d="M54.5301 72.4985C54.4462 72.321 54.3112 72.1727 54.1424 72.0725C53.9736 71.9723 53.7787 71.9249 53.5827 71.9363C61.7554 71.4474 70.3639 72.4 77.2012 76.9037C78.8577 77.9948 80.4194 79.2962 82.2219 80.0878C82.307 80.126 82.3807 80.1856 82.436 80.2607C82.4912 80.3359 82.5261 80.424 82.5372 80.5166C82.5483 80.6092 82.5353 80.7031 82.4994 80.7892C82.4635 80.8753 82.406 80.9506 82.3324 81.0079L82.1344 81.1632C82.0563 81.2244 81.9965 81.3059 81.9614 81.3988C81.9264 81.4917 81.9175 81.5924 81.9358 81.69C81.954 81.7875 81.9986 81.8783 82.0648 81.9523C82.131 82.0262 82.2161 82.0807 82.3111 82.1096C82.4101 82.1398 82.4984 82.1976 82.5656 82.2763C82.6328 82.355 82.6761 82.4512 82.6904 82.5537C82.7048 82.6562 82.6895 82.7606 82.6465 82.8547C82.6034 82.9488 82.5344 83.0286 82.4475 83.0848L80.9303 84.0654C80.8539 84.1139 80.7909 84.1808 80.7471 84.26C80.7032 84.3392 80.68 84.4282 80.6795 84.5187C80.679 84.6092 80.7013 84.6984 80.7442 84.7781C80.7872 84.8577 80.8494 84.9254 80.9253 84.9747C81.0538 85.0541 81.1888 85.1225 81.3288 85.1793C81.4159 85.212 81.4931 85.2666 81.5529 85.3378C81.6128 85.409 81.6533 85.4945 81.6706 85.5859C81.6878 85.6773 81.6812 85.7717 81.6514 85.8598C81.6216 85.9479 81.5696 86.0269 81.5004 86.0891C80.8434 86.674 80.3395 87.4107 80.0325 88.2351C79.5268 89.5499 79.436 90.9819 79.3505 92.3881C78.8279 90.3591 76.6136 89.1648 74.522 89.0435C72.4304 88.9221 70.3905 89.6122 68.3549 90.1083C63.9214 91.1857 59.3167 91.3629 54.8135 90.6293C56.3427 93.698 55.0528 97.3584 53.7547 100.532L49.553 98.731C43.7826 95.4736 47.8021 109.253 49.9594 111.144C45.5545 112.671 34.0254 95.7219 37.7343 89.2925C39.6636 85.9481 38.2941 81.6345 42.0872 78.4626C43.9462 76.5055 47.6579 77.3754 49.553 75.7488C50.299 75.1087 49.162 73.396 50.1871 73.0227C50.5276 72.8988 54.4738 72.3736 54.5301 72.4985Z" fill="#212D40"/>
<path d="M84.768 128.387C88.0437 142.929 96.4453 176.885 104.969 183.986C105.51 184.496 106.158 184.879 106.866 185.106C136.827 192.405 146.427 173.786 146.427 173.786C146.427 173.786 138.398 169.874 138.194 162.226L122.002 167.25L107.887 135.485L105.81 133.547L105.798 133.536L84.768 128.387Z" fill="#212D40"/>
<path d="M20.8862 262.682C20.0283 261.857 19.3616 260.854 18.9332 259.744C18.5047 258.634 18.3249 257.443 18.4064 256.256C18.4879 255.068 18.8287 253.913 19.4048 252.872C19.981 251.831 20.7784 250.929 21.741 250.229L13.3418 222.548L27.7532 226.823L33.5198 252.454C34.5881 254.149 34.9976 256.177 34.6707 258.154C34.3437 260.131 33.303 261.919 31.7457 263.179C30.1884 264.44 28.2229 265.086 26.2214 264.994C24.2199 264.902 22.3216 264.079 20.8862 262.682Z" fill="#FFB8B8"/>
<path d="M28.5736 137.037L21.9164 138.586C21.9164 138.586 -5.59933 192.122 1.03122 202.323C7.66177 212.524 15.7847 246.296 15.7847 246.296C15.7847 246.296 27.7989 243.908 32.3893 237.787L23.9832 197.733L32.6539 164.07L28.5736 137.037Z" fill="#212D40"/>
<path d="M154.871 216.537L154.632 130.314C154.625 128.568 153.926 126.897 152.689 125.667C151.451 124.436 149.776 123.747 148.031 123.749L82.9132 123.93C81.168 123.937 79.4968 124.636 78.2663 125.873C77.0357 127.11 76.3462 128.785 76.3491 130.531L76.5881 216.754C76.5949 218.499 77.2937 220.17 78.5311 221.401C79.7685 222.631 81.4436 223.321 83.1887 223.318L148.306 223.138C150.052 223.131 151.723 222.432 152.953 221.195C154.184 219.957 154.873 218.282 154.871 216.537Z" fill="#E6E6E6"/>
<path d="M149.803 190.508L149.65 135.076C149.643 133.441 148.989 131.876 147.83 130.724C146.671 129.571 145.102 128.925 143.468 128.928L87.5048 129.083C85.8704 129.09 84.3052 129.744 83.1527 130.903C82.0001 132.062 81.3544 133.63 81.357 135.265L81.5697 211.992C81.5761 213.626 82.2306 215.191 83.3896 216.344C84.5485 217.496 86.1173 218.142 87.7517 218.139L122.42 218.043C129.7 218.015 136.672 215.1 141.805 209.938C146.939 204.776 149.815 197.788 149.803 190.508Z" fill="white"/>
<path d="M93.9172 153.277H137.554C138.249 153.277 138.914 153.001 139.406 152.51C139.897 152.019 140.172 151.353 140.172 150.659C140.172 149.965 139.897 149.299 139.406 148.808C138.914 148.317 138.249 148.041 137.554 148.041H93.9172C93.2228 148.041 92.5569 148.317 92.0659 148.808C91.5749 149.299 91.299 149.965 91.299 150.659C91.299 151.353 91.5749 152.019 92.0659 152.51C92.5569 153.001 93.2228 153.277 93.9172 153.277Z" fill="#50BDB4"/>
<path d="M127.954 141.204H137.554C138.249 141.204 138.914 140.928 139.406 140.437C139.897 139.946 140.172 139.28 140.172 138.586C140.172 137.892 139.897 137.226 139.406 136.735C138.914 136.244 138.249 135.968 137.554 135.968H127.954C127.26 135.968 126.594 136.244 126.103 136.735C125.612 137.226 125.336 137.892 125.336 138.586C125.336 139.28 125.612 139.946 126.103 140.437C126.594 140.928 127.26 141.204 127.954 141.204Z" fill="#50BDB4"/>
<path d="M93.9172 165.35H137.554C138.249 165.35 138.914 165.074 139.406 164.583C139.897 164.092 140.172 163.426 140.172 162.732C140.172 162.037 139.897 161.371 139.406 160.88C138.914 160.389 138.249 160.114 137.554 160.114H93.9172C93.2228 160.114 92.5569 160.389 92.0659 160.88C91.5749 161.371 91.299 162.037 91.299 162.732C91.299 163.426 91.5749 164.092 92.0659 164.583C92.5569 165.074 93.2228 165.35 93.9172 165.35Z" fill="#50BDB4"/>
<path d="M93.9172 177.423H137.554C138.249 177.423 138.914 177.147 139.406 176.656C139.897 176.165 140.172 175.499 140.172 174.805C140.172 174.11 139.897 173.444 139.406 172.953C138.914 172.462 138.249 172.186 137.554 172.186H93.9172C93.2228 172.186 92.5569 172.462 92.0659 172.953C91.5749 173.444 91.299 174.11 91.299 174.805C91.299 175.499 91.5749 176.165 92.0659 176.656C92.5569 177.147 93.2228 177.423 93.9172 177.423Z" fill="#50BDB4"/>
<path d="M129.72 205.175C123.966 205.175 119.302 200.511 119.302 194.758C119.302 189.004 123.966 184.34 129.72 184.34C135.474 184.34 140.138 189.004 140.138 194.758C140.138 200.511 135.474 205.175 129.72 205.175Z" fill="#50BDB4"/>
<path d="M128.298 200.18C128.118 200.18 127.94 200.138 127.78 200.057C127.619 199.977 127.479 199.86 127.371 199.716L124.529 195.926C124.437 195.805 124.37 195.666 124.333 195.519C124.295 195.371 124.286 195.218 124.308 195.067C124.329 194.916 124.38 194.771 124.458 194.64C124.535 194.509 124.638 194.394 124.76 194.303C124.881 194.212 125.02 194.145 125.168 194.107C125.315 194.07 125.469 194.061 125.619 194.083C125.77 194.105 125.915 194.156 126.046 194.233C126.177 194.311 126.292 194.414 126.383 194.536L128.242 197.015L133.018 189.851C133.102 189.724 133.211 189.615 133.337 189.53C133.464 189.445 133.606 189.385 133.755 189.355C133.905 189.325 134.059 189.325 134.208 189.354C134.358 189.384 134.5 189.442 134.627 189.527C134.754 189.612 134.863 189.72 134.948 189.847C135.032 189.974 135.091 190.116 135.121 190.266C135.151 190.415 135.15 190.569 135.12 190.719C135.091 190.868 135.031 191.01 134.946 191.137L129.262 199.664C129.159 199.818 129.021 199.945 128.859 200.035C128.697 200.125 128.515 200.174 128.33 200.179C128.319 200.179 128.309 200.18 128.298 200.18Z" fill="white"/>
<path d="M119.663 103.676C116.932 103.676 114.717 101.462 114.717 98.7309C114.717 95.9996 116.932 93.7854 119.663 93.7854C122.394 93.7854 124.609 95.9996 124.609 98.7309C124.609 101.462 122.394 103.676 119.663 103.676Z" fill="#F2F2F2"/>
<path d="M137.7 245.933C134.968 245.933 132.754 243.719 132.754 240.987C132.754 238.256 134.968 236.042 137.7 236.042C140.431 236.042 142.645 238.256 142.645 240.987C142.645 243.719 140.431 245.933 137.7 245.933Z" fill="#F2F2F2"/>
<path d="M23.9527 122.877C21.2213 122.877 19.0072 120.663 19.0072 117.931C19.0072 115.2 21.2213 112.986 23.9527 112.986C26.684 112.986 28.8982 115.2 28.8982 117.931C28.8982 120.663 26.684 122.877 23.9527 122.877Z" fill="#F2F2F2"/>
</svg>
