<svg width="173" height="42" viewBox="0 0 173 42" fill="none" xmlns="http://www.w3.org/2000/svg">
<path d="M45.9973 33V8.38232H55.2289C57.1201 8.38232 58.7068 8.73492 59.989 9.44011C61.2791 10.1453 62.2528 11.1149 62.9099 12.349C63.575 13.5751 63.9076 14.9695 63.9076 16.5321C63.9076 18.1108 63.575 19.5132 62.9099 20.7392C62.2448 21.9653 61.2631 22.931 59.9649 23.6361C58.6667 24.3333 57.068 24.6819 55.1688 24.6819H49.0504V21.0157H54.5678C55.6736 21.0157 56.5792 20.8234 57.2844 20.4387C57.9896 20.0541 58.5104 19.5252 58.847 18.852C59.1916 18.1789 59.3639 17.4056 59.3639 16.5321C59.3639 15.6586 59.1916 14.8893 58.847 14.2242C58.5104 13.5591 57.9856 13.0422 57.2724 12.6736C56.5672 12.297 55.6576 12.1086 54.5437 12.1086H50.4568V33H45.9973ZM67.5888 33V14.5367H71.808V17.614H72.0003C72.3369 16.5481 72.9138 15.7268 73.7312 15.1498C74.5566 14.5648 75.4982 14.2723 76.556 14.2723C76.7964 14.2723 77.0649 14.2843 77.3614 14.3084C77.6659 14.3244 77.9183 14.3524 78.1186 14.3925V18.3953C77.9343 18.3312 77.6418 18.2751 77.2412 18.227C76.8485 18.1709 76.4678 18.1428 76.0992 18.1428C75.3059 18.1428 74.5927 18.3151 73.9596 18.6597C73.3345 18.9963 72.8417 19.4651 72.4811 20.0661C72.1205 20.6671 71.9402 21.3603 71.9402 22.1456V33H67.5888ZM88.3029 33.3606C86.4998 33.3606 84.9372 32.9639 83.6149 32.1706C82.2927 31.3773 81.267 30.2674 80.5377 28.841C79.8165 27.4145 79.4559 25.7477 79.4559 23.8405C79.4559 21.9333 79.8165 20.2624 80.5377 18.828C81.267 17.3936 82.2927 16.2797 83.6149 15.4864C84.9372 14.693 86.4998 14.2963 88.3029 14.2963C90.1059 14.2963 91.6686 14.693 92.9908 15.4864C94.3131 16.2797 95.3348 17.3936 96.056 18.828C96.7852 20.2624 97.1499 21.9333 97.1499 23.8405C97.1499 25.7477 96.7852 27.4145 96.056 28.841C95.3348 30.2674 94.3131 31.3773 92.9908 32.1706C91.6686 32.9639 90.1059 33.3606 88.3029 33.3606ZM88.3269 29.8747C89.3046 29.8747 90.122 29.6063 90.7791 29.0693C91.4362 28.5244 91.925 27.7952 92.2456 26.8816C92.5741 25.9681 92.7384 24.9504 92.7384 23.8285C92.7384 22.6986 92.5741 21.6768 92.2456 20.7633C91.925 19.8417 91.4362 19.1085 90.7791 18.5636C90.122 18.0186 89.3046 17.7462 88.3269 17.7462C87.3252 17.7462 86.4918 18.0186 85.8267 18.5636C85.1696 19.1085 84.6767 19.8417 84.3482 20.7633C84.0276 21.6768 83.8674 22.6986 83.8674 23.8285C83.8674 24.9504 84.0276 25.9681 84.3482 26.8816C84.6767 27.7952 85.1696 28.5244 85.8267 29.0693C86.4918 29.6063 87.3252 29.8747 88.3269 29.8747ZM115.436 19.417L111.469 19.8497C111.357 19.4491 111.161 19.0724 110.88 18.7198C110.608 18.3672 110.239 18.0827 109.774 17.8664C109.309 17.65 108.74 17.5418 108.067 17.5418C107.162 17.5418 106.401 17.7382 105.783 18.1308C105.174 18.5235 104.874 19.0324 104.882 19.6574C104.874 20.1943 105.07 20.6311 105.471 20.9676C105.88 21.3042 106.553 21.5807 107.49 21.797L110.64 22.4702C112.387 22.8468 113.685 23.4438 114.534 24.2612C115.392 25.0786 115.824 26.1484 115.832 27.4706C115.824 28.6326 115.484 29.6583 114.811 30.5478C114.146 31.4293 113.22 32.1185 112.034 32.6153C110.848 33.1122 109.486 33.3606 107.947 33.3606C105.687 33.3606 103.868 32.8878 102.49 31.9422C101.112 30.9886 100.29 29.6623 100.026 27.9635L104.269 27.5548C104.461 28.3882 104.87 29.0173 105.495 29.442C106.12 29.8667 106.933 30.0791 107.935 30.0791C108.969 30.0791 109.798 29.8667 110.423 29.442C111.056 29.0173 111.373 28.4924 111.373 27.8673C111.373 27.3384 111.169 26.9017 110.76 26.5571C110.359 26.2125 109.734 25.9481 108.885 25.7637L105.735 25.1026C103.964 24.734 102.654 24.113 101.805 23.2395C100.955 22.358 100.535 21.2441 100.543 19.8978C100.535 18.7599 100.843 17.7742 101.468 16.9408C102.101 16.0994 102.979 15.4503 104.101 14.9935C105.231 14.5287 106.533 14.2963 108.007 14.2963C110.171 14.2963 111.874 14.7571 113.116 15.6787C114.366 16.6002 115.139 17.8463 115.436 19.417ZM128.64 14.5367V17.9024H118.026V14.5367H128.64ZM120.647 10.1133H124.998V27.4466C124.998 28.0316 125.086 28.4803 125.262 28.7929C125.447 29.0974 125.687 29.3057 125.984 29.4179C126.28 29.5301 126.609 29.5862 126.969 29.5862C127.242 29.5862 127.49 29.5662 127.715 29.5261C127.947 29.4861 128.123 29.45 128.243 29.4179L128.977 32.8197C128.744 32.8998 128.412 32.988 127.979 33.0841C127.554 33.1803 127.033 33.2364 126.416 33.2524C125.327 33.2845 124.345 33.1202 123.471 32.7596C122.598 32.391 121.905 31.822 121.392 31.0527C120.887 30.2834 120.639 29.3218 120.647 28.1678V10.1133ZM144.047 25.2349V14.5367H148.399V33H144.179V29.7184H143.987C143.57 30.7522 142.885 31.5976 141.932 32.2547C140.986 32.9119 139.82 33.2404 138.434 33.2404C137.224 33.2404 136.154 32.972 135.224 32.435C134.303 31.8901 133.582 31.1008 133.061 30.067C132.54 29.0253 132.279 27.7671 132.279 26.2926V14.5367H136.631V25.6195C136.631 26.7895 136.951 27.7191 137.592 28.4082C138.233 29.0974 139.075 29.442 140.117 29.442C140.758 29.442 141.379 29.2857 141.98 28.9732C142.581 28.6607 143.074 28.1959 143.458 27.5788C143.851 26.9538 144.047 26.1724 144.047 25.2349ZM162.093 14.5367V17.9024H151.479V14.5367H162.093ZM154.099 10.1133H158.451V27.4466C158.451 28.0316 158.539 28.4803 158.715 28.7929C158.899 29.0974 159.14 29.3057 159.436 29.4179C159.733 29.5301 160.061 29.5862 160.422 29.5862C160.694 29.5862 160.943 29.5662 161.167 29.5261C161.4 29.4861 161.576 29.45 161.696 29.4179L162.429 32.8197C162.197 32.8998 161.864 32.988 161.432 33.0841C161.007 33.1803 160.486 33.2364 159.869 33.2524C158.779 33.2845 157.798 33.1202 156.924 32.7596C156.051 32.391 155.357 31.822 154.845 31.0527C154.34 30.2834 154.091 29.3218 154.099 28.1678V10.1133ZM165.732 33V14.5367H170.083V33H165.732ZM167.92 11.9163C167.23 11.9163 166.637 11.6879 166.141 11.2311C165.644 10.7664 165.395 10.2094 165.395 9.56032C165.395 8.90321 165.644 8.34626 166.141 7.88949C166.637 7.4247 167.23 7.19231 167.92 7.19231C168.617 7.19231 169.21 7.4247 169.699 7.88949C170.196 8.34626 170.444 8.90321 170.444 9.56032C170.444 10.2094 170.196 10.7664 169.699 11.2311C169.21 11.6879 168.617 11.9163 167.92 11.9163Z" fill="#212D40"/>
<path fill-rule="evenodd" clip-rule="evenodd" d="M9.19619 7.84513L7.08286 11.5294C13.9274 11.936 20.2772 15.5471 24.0586 21.2668L26.1719 17.5825L28.8055 17.8699V23.4241C28.1144 23.5392 27.6228 23.8337 27.6228 24.1789C27.6228 24.5129 28.0831 24.7995 28.7391 24.922L27.7303 28.8564H31.0636L30.0593 24.9396C30.7697 24.829 31.2787 24.5302 31.2787 24.1789C31.2787 23.816 30.7355 23.5092 29.9883 23.4079V17.9989L35.913 18.6454L23.8567 2.06079L3.40734 0L9.19619 7.84513ZM1.79868 41.5963L10.1985 26.9524C11.7839 26.9305 12.4357 24.9079 11.1904 23.9265L11.1118 23.8935C9.60088 23.2589 8.19577 24.9879 9.12585 26.3371L0.726043 40.981L1.35894 38.2698C2.27935 34.3269 2.06799 30.2042 0.749174 26.3761L0 24.2015C3.6592 21.28 6.42899 15.8029 6.39349 13.0554C13.1762 13.2626 19.4166 16.8135 23.0595 22.5387L23.136 22.659L22.6304 23.0558C19.2816 25.684 17.1541 29.5681 16.7425 33.8051L12.8117 34.9077C9.94812 35.7109 7.28226 37.0993 4.98258 38.9852L1.79868 41.5963Z" fill="#50AFFF"/>
</svg>
