<svg width="25" height="31" viewBox="0 0 25 31" fill="none" xmlns="http://www.w3.org/2000/svg">
<path d="M1.41731 30.9319C1.00448 30.8032 0.797907 30.6718 0.503644 30.3506C0.107225 29.918 0.00428593 29.5791 0.000466243 28.6941C-0.00247377 28.0122 0.00445595 27.9717 0.143117 27.8612C0.33192 27.7107 0.612943 27.713 0.769079 27.8662C0.874693 27.9698 0.892601 28.0684 0.892895 28.5477C0.893362 29.2088 0.961557 29.4896 1.18529 29.7505C1.46009 30.071 1.63262 30.1076 2.86613 30.1076H3.97937V29.1109C3.97937 28.0463 4.01816 27.8629 4.2669 27.7517C4.4896 27.6522 4.58582 27.6682 4.75389 27.8332C4.90326 27.9797 4.90542 27.997 4.90542 29.0447V30.1076H12.499H20.0926V29.0216V27.9356L20.2552 27.81C20.4408 27.6668 20.5196 27.6571 20.7311 27.7517C20.9798 27.8629 21.0186 28.0463 21.0186 29.1109V30.1076H22.1319C23.366 30.1076 23.5378 30.071 23.8135 29.7496C24.1023 29.4128 24.1168 29.2448 24.0892 26.5703C24.0616 23.9034 24.0549 23.8409 23.7199 23.1313C23.3689 22.3879 22.655 21.6842 21.9078 21.345C21.5965 21.2037 19.8266 20.6594 19.674 20.658C19.6146 20.6576 14.4123 23.6606 12.8694 24.586C12.7506 24.6573 12.5884 24.7158 12.509 24.7159C12.4296 24.716 10.7998 23.8036 8.88422 22.6867C6.96993 21.5706 5.36799 20.6576 5.32434 20.6578C5.08665 20.6592 3.08093 21.3288 2.77271 21.5096C2.31687 21.7769 1.71954 22.3584 1.46289 22.7846C1.03626 23.4931 0.895746 24.1424 0.893775 25.4144C0.892375 26.3467 0.841396 26.4729 0.466462 26.4729C0.306605 26.4729 0.195366 26.4324 0.114979 26.3448C0.00855092 26.2289 -0.00218317 26.118 0.00205418 25.1787C0.00770088 23.9257 0.105646 23.4246 0.492849 22.6678C0.973499 21.7284 1.62382 21.0773 2.55482 20.6036C2.82766 20.4647 3.48371 20.2336 4.12978 20.0486L5.23709 19.7317L7.2629 18.4316L9.28871 17.1314V16.8582C9.28871 16.5974 9.26873 16.5668 8.85359 16.1896C7.98531 15.4008 7.32976 14.2149 7.21019 13.2166C7.17298 12.9059 7.15978 12.8864 6.91807 12.7841C6.77883 12.7251 6.58462 12.5984 6.48649 12.5024C6.14876 12.1719 6.14015 12.1083 6.14015 9.94625C6.14015 8.00214 6.13707 7.95185 6.01096 7.83987C5.76512 7.62157 5.73989 7.50096 5.70823 6.39283L5.67713 5.30419L4.68934 5.1396C4.14606 5.04907 3.63905 4.97331 3.56265 4.97123L3.42374 4.96745V6.05787V7.14828H3.56896C3.74799 7.14828 4.07888 7.36332 4.25151 7.59186C4.36522 7.7424 4.38546 7.88001 4.42084 8.74286C4.4523 9.51016 4.52263 10.0648 4.74482 11.2979C4.90091 12.1642 5.02822 12.9684 5.02774 13.085C5.02634 13.4106 4.79486 13.7597 4.47536 13.918C4.21721 14.0458 4.12336 14.0543 2.96072 14.0543C1.79808 14.0543 1.70424 14.0458 1.44608 13.918C1.13735 13.765 0.894955 13.4126 0.893996 13.1153C0.893762 13.0153 1.02186 12.2111 1.17885 11.3282C1.40326 10.0661 1.47248 9.51331 1.50254 8.74279C1.53629 7.87797 1.55597 7.7426 1.66993 7.59179C1.84261 7.36329 2.1735 7.14828 2.35249 7.14828H2.4977V5.91C2.4977 5.13819 2.47411 4.6574 2.43508 4.63373C2.40064 4.61285 2.31423 4.48376 2.24306 4.34687C1.97539 3.83203 2.21792 3.20113 2.75902 3.00469C3.46718 2.74759 12.3768 0 12.5023 0C12.661 0 22.1215 2.93483 22.3874 3.06657C22.8126 3.27723 22.9816 3.8564 22.753 4.31976C22.55 4.73127 22.323 4.81571 20.7099 5.07964L19.3209 5.30692L19.2898 6.39419C19.2581 7.50089 19.2328 7.6216 18.987 7.83986C18.861 7.95183 18.8579 8.00222 18.8579 9.94035C18.8579 11.1932 18.8337 11.9891 18.7923 12.0966C18.6972 12.3442 18.3714 12.658 18.0799 12.7828C17.8384 12.8862 17.825 12.9062 17.7878 13.2166C17.6682 14.2149 17.0127 15.4008 16.1444 16.1896C15.73 16.5661 15.7093 16.5978 15.7093 16.8565V17.1281L17.739 18.4304L19.7688 19.7328L20.8722 20.0486C21.5197 20.2339 22.1687 20.4629 22.4432 20.6029C23.3899 21.086 24.0443 21.7471 24.5058 22.6867C24.9941 23.681 24.9992 23.723 25 26.7455C25.0007 29.1754 24.9906 29.4391 24.8874 29.7297C24.7368 30.1537 24.2674 30.6541 23.8443 30.8417L23.519 30.986L12.5916 30.9974C3.89976 31.0065 1.61374 30.9931 1.41731 30.9319ZM13.0899 22.5504C13.5644 21.8231 14.1844 20.7159 14.141 20.6733C14.1328 20.6652 13.7599 20.6859 13.3125 20.7193C12.7687 20.76 12.2293 20.76 11.6855 20.7193C11.2381 20.6859 10.8652 20.6652 10.857 20.6733C10.7809 20.748 12.3776 23.3834 12.499 23.3834C12.525 23.3834 12.7909 23.0085 13.0899 22.5504ZM10.7021 22.3753C10.0975 21.411 9.60306 20.1227 9.43562 19.0755C9.38028 18.7294 9.31748 18.3975 9.29607 18.338C9.26307 18.2463 9.04581 18.3648 7.86842 19.1166C7.10462 19.6044 6.44549 20.0352 6.40367 20.074C6.34488 20.1285 6.84861 20.4483 8.62619 21.4851C9.89038 22.2224 10.9332 22.8178 10.9436 22.8083C10.9541 22.7987 10.8453 22.6039 10.7021 22.3753ZM16.4501 21.4425C17.5537 20.8009 18.5083 20.2411 18.5716 20.1986C18.6749 20.1293 18.5475 20.0317 17.3177 19.2386C16.5649 18.753 15.8956 18.3278 15.8306 18.2936C15.6968 18.2233 15.7218 18.1496 15.5531 19.1126C15.3638 20.1928 14.9121 21.3763 14.3299 22.3172C14.1718 22.5728 14.0424 22.7968 14.0424 22.815C14.0424 22.8332 14.1327 22.7943 14.2431 22.7286C14.3534 22.6628 15.3466 22.0841 16.4501 21.4425ZM14.0424 19.7446C14.2631 19.7096 14.4624 19.6622 14.4852 19.6391C14.6321 19.4908 14.8934 17.1438 14.763 17.1438C14.7427 17.1438 14.5931 17.1951 14.4305 17.2577C13.5026 17.6156 12.2365 17.6949 11.2473 17.4572C10.9494 17.3856 10.6243 17.2858 10.525 17.2354C10.4256 17.185 10.3152 17.1438 10.2796 17.1438C10.183 17.1438 10.1996 18.1108 10.3071 18.7491C10.4464 19.5764 10.4736 19.6453 10.6814 19.6975C11.3364 19.8618 13.1425 19.8872 14.0424 19.7446ZM13.8971 16.4683C15.5286 15.9374 16.6241 14.6372 16.9121 12.8898C17.016 12.2593 17.1287 12.0934 17.5268 11.9846C17.9397 11.8718 17.9935 11.7674 17.9935 11.0792V10.4801H17.6C16.8878 10.4801 16.3835 10.2072 16.1136 9.67576C15.9756 9.40395 15.9562 9.28928 15.9562 8.74172V8.11754H12.499H9.04176V8.74172C9.04176 9.28928 9.02244 9.40395 8.8844 9.67576C8.6145 10.2072 8.11021 10.4801 7.39798 10.4801H7.00446V11.0792C7.00446 11.7674 7.05826 11.8718 7.47118 11.9846C7.86931 12.0934 7.98196 12.2593 8.08588 12.8898C8.25109 13.892 8.58881 14.594 9.24528 15.2997C9.94166 16.0482 10.8076 16.4829 12.0051 16.685C12.4223 16.7555 13.3363 16.6507 13.8971 16.4683ZM4.10284 13.0449C4.10284 12.9266 3.61731 10.0753 3.57068 9.91976C3.54332 9.82851 3.45796 9.81375 2.95774 9.81375C2.40536 9.81375 2.37505 9.8205 2.34569 9.95005C2.28589 10.2139 1.8186 12.9675 1.8186 13.056C1.8186 13.1318 1.99391 13.1456 2.96072 13.1456C3.9844 13.1456 4.10284 13.1351 4.10284 13.0449ZM7.82652 9.50096C8.07216 9.37258 8.11171 9.25926 8.11375 8.6779L8.11562 8.11754H7.55999H7.00436V8.84449V9.57143H7.34797C7.53695 9.57143 7.75236 9.53972 7.82652 9.50096ZM17.9935 8.84449V8.11754H17.4379H16.8823L16.8842 8.6779C16.8868 9.42975 17.0023 9.56629 17.6385 9.56959L17.9934 9.57142L17.9935 8.84449ZM3.48548 8.48101V8.05696H2.96072H2.43596V8.48101V8.90507H2.96072H3.48548V8.48101ZM18.364 6.27425V5.33964L18.009 5.30145C17.2917 5.22427 17.0512 5.03863 17.1529 4.64072C17.2213 4.37329 17.4169 4.32857 18.1677 4.40863C18.8184 4.47802 18.8471 4.47556 20.3663 4.22037C21.2129 4.07816 21.9143 3.93591 21.9249 3.90427C21.9355 3.87263 19.821 3.18465 17.226 2.37542L12.5078 0.90409L7.78127 2.37542C5.18167 3.18465 3.06318 3.87255 3.07351 3.90408C3.08384 3.93562 3.785 4.07853 4.63165 4.22167L6.17101 4.48194L8.92414 4.1492C10.9931 3.89915 11.8798 3.81646 12.4923 3.81646C13.3282 3.81646 15.3018 4.01399 15.596 4.12709C15.8138 4.21085 15.9366 4.49551 15.8423 4.69847C15.7089 4.98588 15.5648 4.99981 14.3044 4.84713C12.665 4.64856 12.1388 4.66681 9.20693 5.02393C7.82073 5.19278 6.67475 5.33092 6.6603 5.33092C6.64586 5.33092 6.63404 5.75346 6.63404 6.26989V7.20886H12.499H18.364V6.27425Z" fill="#212D40"/>
</svg>
