<svg width="20" height="20" viewBox="0 0 20 20" fill="none" xmlns="http://www.w3.org/2000/svg">
<mask id="path-1-outside-1_132_6080" maskUnits="userSpaceOnUse" x="0" y="0" width="20" height="20" fill="black">
<rect fill="white" width="20" height="20"/>
<path d="M3.47427 18.9736C2.94385 18.8475 2.47418 18.3311 2.40797 17.8013L2.38422 17.6114L2.07956 17.5961C1.58793 17.5713 1.2848 17.3906 1.09827 17.0109L1 16.8108V9.78624V2.76164L1.07417 2.6014C1.1826 2.36713 1.34806 2.19654 1.57478 2.08523L1.7749 1.98699L6.42433 1.96939L11.0738 1.95178L11.2675 1.81592C11.7104 1.5053 12.3984 1.22068 13.0396 1.08283C13.5533 0.972389 14.4764 0.972389 14.9901 1.08283C17.0045 1.51589 18.4839 2.99478 18.9171 5.00851C19.0276 5.52208 19.0276 6.44481 18.9171 6.95838C18.4839 8.97211 17.0045 10.451 14.9901 10.8841C14.4764 10.9945 13.5533 10.9945 13.0396 10.8841C11.4841 10.5497 10.2254 9.57987 9.53838 8.18651L9.32886 7.7616L8.4673 7.744L7.60575 7.72639L7.51216 7.63276C7.37183 7.49237 7.37958 7.27295 7.52961 7.13895L7.64063 7.03978H8.38416H9.12769L9.10615 6.9321C8.94555 6.12936 9.01664 5.13836 9.2903 4.36531L9.39057 4.08205H8.07476H6.75895V5.44889C6.75895 6.98927 6.75103 7.05067 6.51371 7.35081C6.4211 7.46793 6.30803 7.55871 6.17097 7.62599L5.96643 7.72639L4.53074 7.73668L3.09506 7.74697L3.10422 12.7952L3.11337 17.8435L3.21904 17.9935C3.27716 18.076 3.39457 18.1803 3.47995 18.2254L3.63519 18.3073H8.80188H13.9686L14.1238 18.2254C14.2092 18.1803 14.3266 18.076 14.3847 17.9935L14.4904 17.8436L14.508 15.5843C14.5177 14.3416 14.5394 13.2966 14.5563 13.262C14.596 13.1806 14.7607 13.0961 14.8796 13.0961C14.9388 13.0961 15.0168 13.1399 15.0927 13.2158L15.2125 13.3355L15.2121 15.5485C15.2118 17.2822 15.2014 17.7997 15.1646 17.9376C15.0504 18.3648 14.8039 18.6668 14.4107 18.8611L14.1418 18.9939L8.87418 18.9995C5.88402 19.0026 3.54933 18.9914 3.47427 18.9736ZM2.39131 12.1004C2.39131 7.71872 2.39631 7.29436 2.44887 7.21486C2.53209 7.08902 6.01076 3.60141 6.17425 3.47991L6.31162 3.37783H8.03182H9.75201L9.83613 3.24579C9.88239 3.17317 9.99447 3.01868 10.0852 2.90248L10.2501 2.69121L6.11819 2.68204C3.06358 2.67527 1.96055 2.68344 1.88772 2.71341C1.67302 2.80175 1.68673 2.31548 1.6881 9.79329C1.68916 15.4045 1.69773 16.6499 1.736 16.7189C1.80662 16.8463 1.92823 16.8962 2.17116 16.8976L2.39131 16.8988V12.1004ZM14.6609 10.2265C16.9953 9.8748 18.6123 7.678 18.2594 5.33763C17.9074 3.00332 15.7107 1.38748 13.3688 1.74034C12.454 1.8782 11.6449 2.29299 10.9674 2.9716C9.81714 4.12361 9.42824 5.79419 9.94784 7.35108C10.6051 9.32049 12.5993 10.5372 14.6609 10.2265ZM13.8426 9.56104C13.7154 9.49056 13.6653 9.36896 13.6639 9.12769C13.6624 8.86795 13.7122 8.7425 13.8439 8.67445C13.9915 8.59814 14.1077 8.61378 14.2345 8.72702C14.3466 8.82715 14.3495 8.83707 14.3495 9.11723C14.3495 9.39738 14.3466 9.4073 14.2345 9.50744C14.1092 9.61934 13.9798 9.63704 13.8426 9.56104ZM10.5105 6.21967C10.3784 6.08766 10.3568 5.98246 10.429 5.82401C10.4886 5.69312 10.6322 5.63134 10.8766 5.63134C11.1302 5.63134 11.2556 5.6822 11.323 5.8125C11.3992 5.95982 11.3837 6.07617 11.2711 6.20209C11.176 6.30857 11.1512 6.31712 10.9016 6.32972C10.6356 6.34315 10.6334 6.34255 10.5105 6.21967ZM13.7824 6.2339C13.5236 6.04237 12.1894 4.66722 12.1644 4.5662C12.0976 4.29626 12.3272 4.0667 12.5971 4.13366C12.6578 4.1487 12.9412 4.40336 13.3547 4.81431L14.0154 5.47093L15.1334 4.35628C15.8655 3.62647 16.285 3.23343 16.3484 3.21788C16.6186 3.15164 16.8476 3.38051 16.7814 3.65071C16.7569 3.75087 14.5176 6.03333 14.2473 6.23372C14.0739 6.3623 13.956 6.36239 13.7824 6.2339ZM16.8366 6.28642C16.6288 6.17128 16.6012 5.92615 16.7764 5.75105C16.8904 5.63707 16.9083 5.63134 17.1497 5.63134C17.3912 5.63134 17.4091 5.63707 17.5231 5.75105C17.6549 5.88279 17.6744 5.99628 17.5926 6.15439C17.565 6.20776 17.5009 6.27035 17.4501 6.29349C17.3273 6.34941 16.9423 6.34496 16.8366 6.28642ZM13.7824 3.2229C13.6684 3.10892 13.6626 3.09103 13.6626 2.84966C13.6626 2.60829 13.6684 2.59041 13.7824 2.47643C13.9142 2.34468 14.0277 2.32512 14.1859 2.40688C14.3162 2.47426 14.3671 2.59954 14.3671 2.85307C14.3671 3.09741 14.3053 3.24091 14.1744 3.30055C14.0172 3.37213 13.9105 3.35099 13.7824 3.2229ZM5.87516 6.98862C6.04712 6.89973 6.05641 6.82839 6.04626 5.67513L6.03689 4.60979L4.82189 5.82478L3.60689 7.03978H4.69155C5.57116 7.03978 5.79491 7.0301 5.87516 6.98862ZM5.25845 15.2299C5.09595 15.0674 5.09595 14.9275 5.25845 14.7651C5.34475 14.6788 5.4097 14.6454 5.49092 14.6454C5.64754 14.6454 5.84315 14.8409 5.84315 14.9975C5.84315 15.154 5.64754 15.3496 5.49092 15.3496C5.4097 15.3496 5.34475 15.3161 5.25845 15.2299ZM6.668 15.2305C6.53512 15.0977 6.51589 14.9849 6.59878 14.8247C6.62693 14.7702 6.69432 14.7074 6.74853 14.6849C6.82106 14.6549 7.5668 14.6466 9.57108 14.6535L12.2951 14.663L12.3801 14.7618C12.4954 14.8958 12.4954 15.0992 12.3801 15.2332L12.2951 15.332L9.54173 15.3414L6.7884 15.3509L6.668 15.2305ZM5.32738 12.7798C5.13093 12.6998 5.07469 12.3998 5.2237 12.2266L5.30871 12.1278H8.80188H12.295L12.3801 12.2266C12.4954 12.3606 12.4954 12.564 12.3801 12.698L12.2951 12.7968L8.84896 12.8037C6.95021 12.8074 5.36897 12.7967 5.32738 12.7798ZM14.6278 12.2722C14.5415 12.1859 14.508 12.121 14.508 12.0398C14.508 11.9586 14.5415 11.8936 14.6278 11.8074C14.714 11.7211 14.779 11.6877 14.8602 11.6877C14.9414 11.6877 15.0064 11.7211 15.0927 11.8074C15.179 11.8936 15.2125 11.9586 15.2125 12.0398C15.2125 12.121 15.179 12.1859 15.0927 12.2722C15.0064 12.3584 14.9414 12.3919 14.8602 12.3919C14.779 12.3919 14.714 12.3584 14.6278 12.2722ZM5.32738 10.2443C5.13104 10.1651 5.07468 9.86461 5.22369 9.6914L5.30868 9.59261L7.43347 9.58298C9.66346 9.57288 9.69964 9.57511 9.80714 9.72853C9.86686 9.81377 9.87465 10.0073 9.8223 10.1051C9.72905 10.2793 9.72791 10.2794 7.49157 10.277C6.34278 10.2758 5.3689 10.2611 5.32738 10.2443Z"/>
</mask>
<path d="M3.47427 18.9736C2.94385 18.8475 2.47418 18.3311 2.40797 17.8013L2.38422 17.6114L2.07956 17.5961C1.58793 17.5713 1.2848 17.3906 1.09827 17.0109L1 16.8108V9.78624V2.76164L1.07417 2.6014C1.1826 2.36713 1.34806 2.19654 1.57478 2.08523L1.7749 1.98699L6.42433 1.96939L11.0738 1.95178L11.2675 1.81592C11.7104 1.5053 12.3984 1.22068 13.0396 1.08283C13.5533 0.972389 14.4764 0.972389 14.9901 1.08283C17.0045 1.51589 18.4839 2.99478 18.9171 5.00851C19.0276 5.52208 19.0276 6.44481 18.9171 6.95838C18.4839 8.97211 17.0045 10.451 14.9901 10.8841C14.4764 10.9945 13.5533 10.9945 13.0396 10.8841C11.4841 10.5497 10.2254 9.57987 9.53838 8.18651L9.32886 7.7616L8.4673 7.744L7.60575 7.72639L7.51216 7.63276C7.37183 7.49237 7.37958 7.27295 7.52961 7.13895L7.64063 7.03978H8.38416H9.12769L9.10615 6.9321C8.94555 6.12936 9.01664 5.13836 9.2903 4.36531L9.39057 4.08205H8.07476H6.75895V5.44889C6.75895 6.98927 6.75103 7.05067 6.51371 7.35081C6.4211 7.46793 6.30803 7.55871 6.17097 7.62599L5.96643 7.72639L4.53074 7.73668L3.09506 7.74697L3.10422 12.7952L3.11337 17.8435L3.21904 17.9935C3.27716 18.076 3.39457 18.1803 3.47995 18.2254L3.63519 18.3073H8.80188H13.9686L14.1238 18.2254C14.2092 18.1803 14.3266 18.076 14.3847 17.9935L14.4904 17.8436L14.508 15.5843C14.5177 14.3416 14.5394 13.2966 14.5563 13.262C14.596 13.1806 14.7607 13.0961 14.8796 13.0961C14.9388 13.0961 15.0168 13.1399 15.0927 13.2158L15.2125 13.3355L15.2121 15.5485C15.2118 17.2822 15.2014 17.7997 15.1646 17.9376C15.0504 18.3648 14.8039 18.6668 14.4107 18.8611L14.1418 18.9939L8.87418 18.9995C5.88402 19.0026 3.54933 18.9914 3.47427 18.9736ZM2.39131 12.1004C2.39131 7.71872 2.39631 7.29436 2.44887 7.21486C2.53209 7.08902 6.01076 3.60141 6.17425 3.47991L6.31162 3.37783H8.03182H9.75201L9.83613 3.24579C9.88239 3.17317 9.99447 3.01868 10.0852 2.90248L10.2501 2.69121L6.11819 2.68204C3.06358 2.67527 1.96055 2.68344 1.88772 2.71341C1.67302 2.80175 1.68673 2.31548 1.6881 9.79329C1.68916 15.4045 1.69773 16.6499 1.736 16.7189C1.80662 16.8463 1.92823 16.8962 2.17116 16.8976L2.39131 16.8988V12.1004ZM14.6609 10.2265C16.9953 9.8748 18.6123 7.678 18.2594 5.33763C17.9074 3.00332 15.7107 1.38748 13.3688 1.74034C12.454 1.8782 11.6449 2.29299 10.9674 2.9716C9.81714 4.12361 9.42824 5.79419 9.94784 7.35108C10.6051 9.32049 12.5993 10.5372 14.6609 10.2265ZM13.8426 9.56104C13.7154 9.49056 13.6653 9.36896 13.6639 9.12769C13.6624 8.86795 13.7122 8.7425 13.8439 8.67445C13.9915 8.59814 14.1077 8.61378 14.2345 8.72702C14.3466 8.82715 14.3495 8.83707 14.3495 9.11723C14.3495 9.39738 14.3466 9.4073 14.2345 9.50744C14.1092 9.61934 13.9798 9.63704 13.8426 9.56104ZM10.5105 6.21967C10.3784 6.08766 10.3568 5.98246 10.429 5.82401C10.4886 5.69312 10.6322 5.63134 10.8766 5.63134C11.1302 5.63134 11.2556 5.6822 11.323 5.8125C11.3992 5.95982 11.3837 6.07617 11.2711 6.20209C11.176 6.30857 11.1512 6.31712 10.9016 6.32972C10.6356 6.34315 10.6334 6.34255 10.5105 6.21967ZM13.7824 6.2339C13.5236 6.04237 12.1894 4.66722 12.1644 4.5662C12.0976 4.29626 12.3272 4.0667 12.5971 4.13366C12.6578 4.1487 12.9412 4.40336 13.3547 4.81431L14.0154 5.47093L15.1334 4.35628C15.8655 3.62647 16.285 3.23343 16.3484 3.21788C16.6186 3.15164 16.8476 3.38051 16.7814 3.65071C16.7569 3.75087 14.5176 6.03333 14.2473 6.23372C14.0739 6.3623 13.956 6.36239 13.7824 6.2339ZM16.8366 6.28642C16.6288 6.17128 16.6012 5.92615 16.7764 5.75105C16.8904 5.63707 16.9083 5.63134 17.1497 5.63134C17.3912 5.63134 17.4091 5.63707 17.5231 5.75105C17.6549 5.88279 17.6744 5.99628 17.5926 6.15439C17.565 6.20776 17.5009 6.27035 17.4501 6.29349C17.3273 6.34941 16.9423 6.34496 16.8366 6.28642ZM13.7824 3.2229C13.6684 3.10892 13.6626 3.09103 13.6626 2.84966C13.6626 2.60829 13.6684 2.59041 13.7824 2.47643C13.9142 2.34468 14.0277 2.32512 14.1859 2.40688C14.3162 2.47426 14.3671 2.59954 14.3671 2.85307C14.3671 3.09741 14.3053 3.24091 14.1744 3.30055C14.0172 3.37213 13.9105 3.35099 13.7824 3.2229ZM5.87516 6.98862C6.04712 6.89973 6.05641 6.82839 6.04626 5.67513L6.03689 4.60979L4.82189 5.82478L3.60689 7.03978H4.69155C5.57116 7.03978 5.79491 7.0301 5.87516 6.98862ZM5.25845 15.2299C5.09595 15.0674 5.09595 14.9275 5.25845 14.7651C5.34475 14.6788 5.4097 14.6454 5.49092 14.6454C5.64754 14.6454 5.84315 14.8409 5.84315 14.9975C5.84315 15.154 5.64754 15.3496 5.49092 15.3496C5.4097 15.3496 5.34475 15.3161 5.25845 15.2299ZM6.668 15.2305C6.53512 15.0977 6.51589 14.9849 6.59878 14.8247C6.62693 14.7702 6.69432 14.7074 6.74853 14.6849C6.82106 14.6549 7.5668 14.6466 9.57108 14.6535L12.2951 14.663L12.3801 14.7618C12.4954 14.8958 12.4954 15.0992 12.3801 15.2332L12.2951 15.332L9.54173 15.3414L6.7884 15.3509L6.668 15.2305ZM5.32738 12.7798C5.13093 12.6998 5.07469 12.3998 5.2237 12.2266L5.30871 12.1278H8.80188H12.295L12.3801 12.2266C12.4954 12.3606 12.4954 12.564 12.3801 12.698L12.2951 12.7968L8.84896 12.8037C6.95021 12.8074 5.36897 12.7967 5.32738 12.7798ZM14.6278 12.2722C14.5415 12.1859 14.508 12.121 14.508 12.0398C14.508 11.9586 14.5415 11.8936 14.6278 11.8074C14.714 11.7211 14.779 11.6877 14.8602 11.6877C14.9414 11.6877 15.0064 11.7211 15.0927 11.8074C15.179 11.8936 15.2125 11.9586 15.2125 12.0398C15.2125 12.121 15.179 12.1859 15.0927 12.2722C15.0064 12.3584 14.9414 12.3919 14.8602 12.3919C14.779 12.3919 14.714 12.3584 14.6278 12.2722ZM5.32738 10.2443C5.13104 10.1651 5.07468 9.86461 5.22369 9.6914L5.30868 9.59261L7.43347 9.58298C9.66346 9.57288 9.69964 9.57511 9.80714 9.72853C9.86686 9.81377 9.87465 10.0073 9.8223 10.1051C9.72905 10.2793 9.72791 10.2794 7.49157 10.277C6.34278 10.2758 5.3689 10.2611 5.32738 10.2443Z" fill="white"/>
<path d="M3.47427 18.9736C2.94385 18.8475 2.47418 18.3311 2.40797 17.8013L2.38422 17.6114L2.07956 17.5961C1.58793 17.5713 1.2848 17.3906 1.09827 17.0109L1 16.8108V9.78624V2.76164L1.07417 2.6014C1.1826 2.36713 1.34806 2.19654 1.57478 2.08523L1.7749 1.98699L6.42433 1.96939L11.0738 1.95178L11.2675 1.81592C11.7104 1.5053 12.3984 1.22068 13.0396 1.08283C13.5533 0.972389 14.4764 0.972389 14.9901 1.08283C17.0045 1.51589 18.4839 2.99478 18.9171 5.00851C19.0276 5.52208 19.0276 6.44481 18.9171 6.95838C18.4839 8.97211 17.0045 10.451 14.9901 10.8841C14.4764 10.9945 13.5533 10.9945 13.0396 10.8841C11.4841 10.5497 10.2254 9.57987 9.53838 8.18651L9.32886 7.7616L8.4673 7.744L7.60575 7.72639L7.51216 7.63276C7.37183 7.49237 7.37958 7.27295 7.52961 7.13895L7.64063 7.03978H8.38416H9.12769L9.10615 6.9321C8.94555 6.12936 9.01664 5.13836 9.2903 4.36531L9.39057 4.08205H8.07476H6.75895V5.44889C6.75895 6.98927 6.75103 7.05067 6.51371 7.35081C6.4211 7.46793 6.30803 7.55871 6.17097 7.62599L5.96643 7.72639L4.53074 7.73668L3.09506 7.74697L3.10422 12.7952L3.11337 17.8435L3.21904 17.9935C3.27716 18.076 3.39457 18.1803 3.47995 18.2254L3.63519 18.3073H8.80188H13.9686L14.1238 18.2254C14.2092 18.1803 14.3266 18.076 14.3847 17.9935L14.4904 17.8436L14.508 15.5843C14.5177 14.3416 14.5394 13.2966 14.5563 13.262C14.596 13.1806 14.7607 13.0961 14.8796 13.0961C14.9388 13.0961 15.0168 13.1399 15.0927 13.2158L15.2125 13.3355L15.2121 15.5485C15.2118 17.2822 15.2014 17.7997 15.1646 17.9376C15.0504 18.3648 14.8039 18.6668 14.4107 18.8611L14.1418 18.9939L8.87418 18.9995C5.88402 19.0026 3.54933 18.9914 3.47427 18.9736ZM2.39131 12.1004C2.39131 7.71872 2.39631 7.29436 2.44887 7.21486C2.53209 7.08902 6.01076 3.60141 6.17425 3.47991L6.31162 3.37783H8.03182H9.75201L9.83613 3.24579C9.88239 3.17317 9.99447 3.01868 10.0852 2.90248L10.2501 2.69121L6.11819 2.68204C3.06358 2.67527 1.96055 2.68344 1.88772 2.71341C1.67302 2.80175 1.68673 2.31548 1.6881 9.79329C1.68916 15.4045 1.69773 16.6499 1.736 16.7189C1.80662 16.8463 1.92823 16.8962 2.17116 16.8976L2.39131 16.8988V12.1004ZM14.6609 10.2265C16.9953 9.8748 18.6123 7.678 18.2594 5.33763C17.9074 3.00332 15.7107 1.38748 13.3688 1.74034C12.454 1.8782 11.6449 2.29299 10.9674 2.9716C9.81714 4.12361 9.42824 5.79419 9.94784 7.35108C10.6051 9.32049 12.5993 10.5372 14.6609 10.2265ZM13.8426 9.56104C13.7154 9.49056 13.6653 9.36896 13.6639 9.12769C13.6624 8.86795 13.7122 8.7425 13.8439 8.67445C13.9915 8.59814 14.1077 8.61378 14.2345 8.72702C14.3466 8.82715 14.3495 8.83707 14.3495 9.11723C14.3495 9.39738 14.3466 9.4073 14.2345 9.50744C14.1092 9.61934 13.9798 9.63704 13.8426 9.56104ZM10.5105 6.21967C10.3784 6.08766 10.3568 5.98246 10.429 5.82401C10.4886 5.69312 10.6322 5.63134 10.8766 5.63134C11.1302 5.63134 11.2556 5.6822 11.323 5.8125C11.3992 5.95982 11.3837 6.07617 11.2711 6.20209C11.176 6.30857 11.1512 6.31712 10.9016 6.32972C10.6356 6.34315 10.6334 6.34255 10.5105 6.21967ZM13.7824 6.2339C13.5236 6.04237 12.1894 4.66722 12.1644 4.5662C12.0976 4.29626 12.3272 4.0667 12.5971 4.13366C12.6578 4.1487 12.9412 4.40336 13.3547 4.81431L14.0154 5.47093L15.1334 4.35628C15.8655 3.62647 16.285 3.23343 16.3484 3.21788C16.6186 3.15164 16.8476 3.38051 16.7814 3.65071C16.7569 3.75087 14.5176 6.03333 14.2473 6.23372C14.0739 6.3623 13.956 6.36239 13.7824 6.2339ZM16.8366 6.28642C16.6288 6.17128 16.6012 5.92615 16.7764 5.75105C16.8904 5.63707 16.9083 5.63134 17.1497 5.63134C17.3912 5.63134 17.4091 5.63707 17.5231 5.75105C17.6549 5.88279 17.6744 5.99628 17.5926 6.15439C17.565 6.20776 17.5009 6.27035 17.4501 6.29349C17.3273 6.34941 16.9423 6.34496 16.8366 6.28642ZM13.7824 3.2229C13.6684 3.10892 13.6626 3.09103 13.6626 2.84966C13.6626 2.60829 13.6684 2.59041 13.7824 2.47643C13.9142 2.34468 14.0277 2.32512 14.1859 2.40688C14.3162 2.47426 14.3671 2.59954 14.3671 2.85307C14.3671 3.09741 14.3053 3.24091 14.1744 3.30055C14.0172 3.37213 13.9105 3.35099 13.7824 3.2229ZM5.87516 6.98862C6.04712 6.89973 6.05641 6.82839 6.04626 5.67513L6.03689 4.60979L4.82189 5.82478L3.60689 7.03978H4.69155C5.57116 7.03978 5.79491 7.0301 5.87516 6.98862ZM5.25845 15.2299C5.09595 15.0674 5.09595 14.9275 5.25845 14.7651C5.34475 14.6788 5.4097 14.6454 5.49092 14.6454C5.64754 14.6454 5.84315 14.8409 5.84315 14.9975C5.84315 15.154 5.64754 15.3496 5.49092 15.3496C5.4097 15.3496 5.34475 15.3161 5.25845 15.2299ZM6.668 15.2305C6.53512 15.0977 6.51589 14.9849 6.59878 14.8247C6.62693 14.7702 6.69432 14.7074 6.74853 14.6849C6.82106 14.6549 7.5668 14.6466 9.57108 14.6535L12.2951 14.663L12.3801 14.7618C12.4954 14.8958 12.4954 15.0992 12.3801 15.2332L12.2951 15.332L9.54173 15.3414L6.7884 15.3509L6.668 15.2305ZM5.32738 12.7798C5.13093 12.6998 5.07469 12.3998 5.2237 12.2266L5.30871 12.1278H8.80188H12.295L12.3801 12.2266C12.4954 12.3606 12.4954 12.564 12.3801 12.698L12.2951 12.7968L8.84896 12.8037C6.95021 12.8074 5.36897 12.7967 5.32738 12.7798ZM14.6278 12.2722C14.5415 12.1859 14.508 12.121 14.508 12.0398C14.508 11.9586 14.5415 11.8936 14.6278 11.8074C14.714 11.7211 14.779 11.6877 14.8602 11.6877C14.9414 11.6877 15.0064 11.7211 15.0927 11.8074C15.179 11.8936 15.2125 11.9586 15.2125 12.0398C15.2125 12.121 15.179 12.1859 15.0927 12.2722C15.0064 12.3584 14.9414 12.3919 14.8602 12.3919C14.779 12.3919 14.714 12.3584 14.6278 12.2722ZM5.32738 10.2443C5.13104 10.1651 5.07468 9.86461 5.22369 9.6914L5.30868 9.59261L7.43347 9.58298C9.66346 9.57288 9.69964 9.57511 9.80714 9.72853C9.86686 9.81377 9.87465 10.0073 9.8223 10.1051C9.72905 10.2793 9.72791 10.2794 7.49157 10.277C6.34278 10.2758 5.3689 10.2611 5.32738 10.2443Z" stroke="white" stroke-width="0.2" mask="url(#path-1-outside-1_132_6080)"/>
</svg>
