<svg width="114" height="28" viewBox="0 0 114 28" fill="none" xmlns="http://www.w3.org/2000/svg">
<path d="M30.3435 22V5.76023H36.4334C37.681 5.76023 38.7277 5.99283 39.5735 6.45803C40.4246 6.92323 41.0669 7.56288 41.5004 8.37699C41.9391 9.1858 42.1585 10.1056 42.1585 11.1365C42.1585 12.1779 41.9391 13.103 41.5004 13.9118C41.0616 14.7206 40.414 15.3577 39.5576 15.8229C38.7012 16.2828 37.6466 16.5127 36.3937 16.5127H32.3576V14.0942H35.9973C36.7268 14.0942 37.3241 13.9673 37.7893 13.7136C38.2545 13.4598 38.5982 13.1109 38.8202 12.6669C39.0475 12.2228 39.1612 11.7127 39.1612 11.1365C39.1612 10.5603 39.0475 10.0528 38.8202 9.614C38.5982 9.17523 38.2519 8.83426 37.7814 8.59109C37.3162 8.34263 36.7162 8.2184 35.9814 8.2184H33.2853V22H30.3435ZM44.587 22V9.82017H47.3702V11.8501H47.4971C47.7191 11.147 48.0998 10.6052 48.639 10.2246C49.1835 9.83867 49.8046 9.64572 50.5024 9.64572C50.661 9.64572 50.8381 9.65365 51.0337 9.66951C51.2346 9.68008 51.4011 9.69858 51.5333 9.72501V12.3656C51.4117 12.3233 51.2187 12.2863 50.9544 12.2545C50.6954 12.2175 50.4443 12.199 50.2011 12.199C49.6777 12.199 49.2073 12.3127 48.7896 12.54C48.3773 12.762 48.0522 13.0713 47.8143 13.4678C47.5764 13.8642 47.4575 14.3215 47.4575 14.8396V22H44.587ZM58.2516 22.2379C57.0621 22.2379 56.0313 21.9762 55.1591 21.4528C54.2868 20.9295 53.6101 20.1973 53.1291 19.2564C52.6533 18.3154 52.4154 17.2158 52.4154 15.9577C52.4154 14.6995 52.6533 13.5973 53.1291 12.651C53.6101 11.7048 54.2868 10.97 55.1591 10.4466C56.0313 9.92325 57.0621 9.66158 58.2516 9.66158C59.441 9.66158 60.4719 9.92325 61.3441 10.4466C62.2164 10.97 62.8904 11.7048 63.3662 12.651C63.8472 13.5973 64.0877 14.6995 64.0877 15.9577C64.0877 17.2158 63.8472 18.3154 63.3662 19.2564C62.8904 20.1973 62.2164 20.9295 61.3441 21.4528C60.4719 21.9762 59.441 22.2379 58.2516 22.2379ZM58.2674 19.9383C58.9124 19.9383 59.4516 19.7612 59.8851 19.407C60.3186 19.0475 60.641 18.5665 60.8525 17.9638C61.0692 17.3612 61.1776 16.6898 61.1776 15.9497C61.1776 15.2043 61.0692 14.5303 60.8525 13.9277C60.641 13.3198 60.3186 12.836 59.8851 12.4766C59.4516 12.1171 58.9124 11.9374 58.2674 11.9374C57.6066 11.9374 57.0569 12.1171 56.6181 12.4766C56.1846 12.836 55.8595 13.3198 55.6428 13.9277C55.4313 14.5303 55.3256 15.2043 55.3256 15.9497C55.3256 16.6898 55.4313 17.3612 55.6428 17.9638C55.8595 18.5665 56.1846 19.0475 56.6181 19.407C57.0569 19.7612 57.6066 19.9383 58.2674 19.9383ZM76.1506 13.0396L73.5338 13.325C73.4598 13.0607 73.3303 12.8123 73.1453 12.5797C72.9656 12.3471 72.7224 12.1594 72.4158 12.0167C72.1092 11.8739 71.7338 11.8026 71.2898 11.8026C70.6924 11.8026 70.1902 11.9321 69.7832 12.1911C69.3814 12.4501 69.1832 12.7858 69.1884 13.1982C69.1832 13.5524 69.3127 13.8405 69.577 14.0625C69.8466 14.2845 70.2907 14.4669 70.9092 14.6096L72.9867 15.0537C74.1391 15.3021 74.9955 15.696 75.5559 16.2352C76.1215 16.7744 76.407 17.4801 76.4123 18.3524C76.407 19.1189 76.1823 19.7956 75.7383 20.3824C75.2995 20.9639 74.6889 21.4185 73.9065 21.7462C73.1241 22.074 72.2255 22.2379 71.2105 22.2379C69.7197 22.2379 68.5197 21.926 67.6105 21.3022C66.7012 20.6731 66.1593 19.7982 65.9849 18.6775L68.784 18.4079C68.9109 18.9577 69.1805 19.3727 69.5928 19.6528C70.0052 19.933 70.5418 20.0731 71.2026 20.0731C71.8845 20.0731 72.4316 19.933 72.844 19.6528C73.2616 19.3727 73.4704 19.0264 73.4704 18.6141C73.4704 18.2652 73.3356 17.9771 73.066 17.7497C72.8017 17.5224 72.3893 17.348 71.829 17.2264L69.7514 16.7903C68.5831 16.5471 67.7188 16.1374 67.1585 15.5612C66.5981 14.9797 66.3206 14.2449 66.3259 13.3568C66.3206 12.6061 66.5241 11.9559 66.9364 11.4061C67.3541 10.851 67.9329 10.4228 68.673 10.1215C69.4184 9.81488 70.2774 9.66158 71.2501 9.66158C72.6775 9.66158 73.8008 9.96554 74.6202 10.5735C75.4449 11.1814 75.955 12.0034 76.1506 13.0396ZM84.8612 9.82017V12.0404H77.8594V9.82017H84.8612ZM79.5881 6.90209H82.4586V18.3365C82.4586 18.7224 82.5167 19.0185 82.633 19.2246C82.7546 19.4255 82.9132 19.563 83.1088 19.637C83.3044 19.711 83.5211 19.748 83.759 19.748C83.9388 19.748 84.1026 19.7348 84.2507 19.7083C84.404 19.6819 84.5203 19.6581 84.5996 19.637L85.0833 21.881C84.93 21.9339 84.7106 21.9921 84.4251 22.0555C84.1449 22.1189 83.8013 22.1559 83.3943 22.1665C82.6753 22.1877 82.0277 22.0793 81.4515 21.8414C80.8753 21.5982 80.418 21.2229 80.0797 20.7154C79.7467 20.2079 79.5828 19.5735 79.5881 18.8123V6.90209ZM95.025 16.8775V9.82017H97.8955V22H95.1122V19.8352H94.9853C94.7104 20.5172 94.2584 21.0749 93.6294 21.5084C93.0056 21.9418 92.2364 22.1586 91.3218 22.1586C90.5236 22.1586 89.8179 21.9815 89.2047 21.6273C88.5967 21.2678 88.1209 20.7471 87.7773 20.0652C87.4337 19.3779 87.2619 18.548 87.2619 17.5753V9.82017H90.1324V17.1312C90.1324 17.903 90.3439 18.5163 90.7668 18.9709C91.1897 19.4255 91.7448 19.6528 92.432 19.6528C92.8549 19.6528 93.2646 19.5497 93.6611 19.3436C94.0575 19.1374 94.3827 18.8308 94.6364 18.4237C94.8954 18.0114 95.025 17.496 95.025 16.8775ZM106.929 9.82017V12.0404H99.9274V9.82017H106.929ZM101.656 6.90209H104.527V18.3365C104.527 18.7224 104.585 19.0185 104.701 19.2246C104.823 19.4255 104.981 19.563 105.177 19.637C105.372 19.711 105.589 19.748 105.827 19.748C106.007 19.748 106.171 19.7348 106.319 19.7083C106.472 19.6819 106.588 19.6581 106.668 19.637L107.151 21.881C106.998 21.9339 106.779 21.9921 106.493 22.0555C106.213 22.1189 105.869 22.1559 105.462 22.1665C104.743 22.1877 104.096 22.0793 103.52 21.8414C102.943 21.5982 102.486 21.2229 102.148 20.7154C101.815 20.2079 101.651 19.5735 101.656 18.8123V6.90209ZM109.33 22V9.82017H112.2V22H109.33ZM110.773 8.09152C110.318 8.09152 109.927 7.94086 109.6 7.63954C109.272 7.33293 109.108 6.96552 109.108 6.53733C109.108 6.10384 109.272 5.73644 109.6 5.43512C109.927 5.12851 110.318 4.9752 110.773 4.9752C111.233 4.9752 111.624 5.12851 111.947 5.43512C112.274 5.73644 112.438 6.10384 112.438 6.53733C112.438 6.96552 112.274 7.33293 111.947 7.63954C111.624 7.94086 111.233 8.09152 110.773 8.09152Z" fill="#212D40"/>
<path fill-rule="evenodd" clip-rule="evenodd" d="M6.06659 5.17527L4.67248 7.60571C9.1877 7.8739 13.3765 10.2561 15.871 14.0292L17.2651 11.5988L19.0026 11.7884V15.4524C18.5466 15.5283 18.2223 15.7226 18.2223 15.9503C18.2223 16.1706 18.5258 16.3596 18.9585 16.4404L18.293 19.0359H20.4919L19.8294 16.4521C20.2981 16.3792 20.634 16.182 20.634 15.9503C20.634 15.7109 20.2757 15.5085 19.7828 15.4417V11.8735L23.6911 12.3L15.7378 1.35946L2.24782 0L6.06659 5.17527ZM1.18655 27.4402L6.72773 17.7799C7.77357 17.7655 8.20356 16.4312 7.38208 15.7838L7.33023 15.762C6.33349 15.3434 5.40657 16.484 6.02013 17.3741L0.478955 27.0343L0.896463 25.2458C1.50364 22.6447 1.36421 19.9251 0.494214 17.3998L0 15.9653C2.4139 14.038 4.24107 10.4249 4.21765 8.61239C8.69205 8.74907 12.8087 11.0916 15.2118 14.8683L15.2623 14.9477L14.9288 15.2094C12.7196 16.9432 11.3162 19.5054 11.0447 22.3005L8.4516 23.0279C6.56256 23.5577 4.80395 24.4736 3.2869 25.7177L1.18655 27.4402Z" fill="#50AFFF"/>
</svg>
