<svg width="133" height="139" viewBox="0 0 133 139" fill="none" xmlns="http://www.w3.org/2000/svg">
<path d="M57.1151 35.7748L52.115 44.4918C68.3092 45.4537 83.3325 53.9976 92.2793 67.5303L97.2794 58.8133L120.327 61.3282L91.8016 22.0891L43.4187 17.2133L57.1151 35.7748Z" fill="#50AFFF"/>
<rect x="103.511" y="57.7565" width="2.79852" height="15.2647" fill="#50AFFF"/>
<path d="M103.511 75.5652L106.309 75.5652L108.853 85.4872L100.966 85.4872L103.511 75.5652Z" fill="#50AFFF"/>
<ellipse cx="105.037" cy="74.4204" rx="4.32498" ry="1.90808" fill="#50AFFF"/>
<path d="M59.4865 80.9824L39.6127 115.63L47.1457 109.452C52.5867 104.99 58.8941 101.705 65.6693 99.8046L74.9696 97.1959C75.9434 87.1711 80.977 77.9814 88.9003 71.7631L90.0966 70.8243L89.9155 70.5397C81.2966 56.994 66.5317 48.5925 50.4839 48.1023C50.5679 54.6029 44.0146 67.5616 35.357 74.4739L37.1295 79.619C40.2498 88.6762 40.7499 98.4304 38.5722 107.759L37.0748 114.174L56.9487 79.5267C54.7481 76.3343 58.0726 72.2437 61.6474 73.745L61.8334 73.8231C64.7797 76.1451 63.2375 80.9306 59.4865 80.9824Z" fill="#50AFFF"/>
</svg>
