<svg width="22" height="25" viewBox="0 0 22 25" fill="none" xmlns="http://www.w3.org/2000/svg">
<path d="M18.7962 10.0612V9.28645C18.7962 5.03458 15.473 1.58824 11.3782 1.58824C7.28353 1.58824 3.96028 5.03458 3.96028 9.28645V10.0612C3.9616 10.986 3.69767 11.8919 3.1998 12.6712L1.98215 14.5669C0.871101 16.2978 1.7195 18.6507 3.65257 19.198C8.7035 20.6299 14.053 20.6299 19.1039 19.198C21.037 18.6507 21.8854 16.2978 20.7743 14.568L19.5567 12.6723C19.0584 11.8931 18.7941 10.9873 18.7951 10.0623L18.7962 10.0612Z" stroke="#212D40" stroke-width="1.34874"/>
<path d="M6.43311 20.2705C7.15292 22.1915 9.09478 23.5674 11.3784 23.5674C13.6621 23.5674 15.6039 22.1915 16.3237 20.2705" stroke="#212D40" stroke-width="1.34874" stroke-linecap="round"/>
</svg>
