<svg width="37" height="46" viewBox="0 0 37 46" fill="none" xmlns="http://www.w3.org/2000/svg">
<path d="M0 1.64286C0 0.735532 0.735534 0 1.64286 0H34.7738C35.6811 0 36.4167 0.735534 36.4167 1.64286V17.4849C36.4167 18.1929 35.9631 18.8212 35.2911 19.0442L18.7256 24.5397C18.3898 24.6511 18.0269 24.6511 17.691 24.5397L1.12557 19.0442C0.453583 18.8212 0 18.1929 0 17.4849V1.64286Z" fill="#50AFFF"/>
<path d="M3.42261 4.24404C3.42261 3.79037 3.79037 3.42261 4.24404 3.42261H32.1726C32.6263 3.42261 32.994 3.79037 32.994 4.24404V15.4117C32.994 15.7586 32.7762 16.068 32.4497 16.185L18.4854 21.1894C18.3063 21.2536 18.1104 21.2536 17.9312 21.1894L3.96692 16.185C3.64043 16.068 3.42261 15.7586 3.42261 15.4117V4.24404Z" fill="white"/>
<path d="M17.2187 25.6348C17.5302 24.6762 18.8864 24.6762 19.1978 25.6348L20.6027 29.9585C20.742 30.3872 21.1415 30.6774 21.5923 30.6774H26.1385C27.1464 30.6774 27.5655 31.9672 26.75 32.5597L23.0721 35.2319C22.7074 35.4968 22.5548 35.9665 22.6941 36.3952L24.099 40.7189C24.4104 41.6775 23.3133 42.4746 22.4978 41.8822L18.8199 39.21C18.4552 38.945 17.9614 38.945 17.5967 39.21L13.9187 41.8822C13.1033 42.4746 12.0061 41.6775 12.3176 40.7189L13.7225 36.3952C13.8618 35.9665 13.7092 35.4968 13.3445 35.2319L9.66653 32.5597C8.85109 31.9672 9.27017 30.6774 10.2781 30.6774H14.8243C15.2751 30.6774 15.6746 30.3872 15.8139 29.9585L17.2187 25.6348Z" fill="#FFB028"/>
<path d="M20.8859 5.75724V17.7053H18.3598V8.15503H18.2898L15.5536 9.87023V7.62997L18.5115 5.75724H20.8859Z" fill="#292D34"/>
</svg>
