<svg width="30" height="37" viewBox="0 0 30 37" fill="none" xmlns="http://www.w3.org/2000/svg">
<path d="M0 1.32143C0 0.591625 0.591625 0 1.32143 0H27.9702C28.7 0 29.2917 0.591625 29.2917 1.32143V14.0639C29.2917 14.6334 28.9268 15.1388 28.3863 15.3181L15.0619 19.7385C14.7918 19.8281 14.4999 19.8281 14.2298 19.7385L0.905351 15.3181C0.364838 15.1388 0 14.6334 0 14.0639V1.32143Z" fill="#50AFFF"/>
<path d="M2.75293 3.41365C2.75293 3.04874 3.04874 2.75293 3.41365 2.75293H25.8779C26.2428 2.75293 26.5386 3.04874 26.5386 3.41365V12.3964C26.5386 12.6753 26.3634 12.9242 26.1008 13.0184L14.8687 17.0436C14.7246 17.0952 14.567 17.0952 14.4229 17.0436L3.19075 13.0184C2.92814 12.9242 2.75293 12.6753 2.75293 12.3964V3.41365Z" fill="white"/>
<path d="M13.8499 20.6192C14.1005 19.8482 15.1913 19.8482 15.4418 20.6192L16.5718 24.097C16.6839 24.4418 17.0052 24.6753 17.3678 24.6753H21.0245C21.8353 24.6753 22.1723 25.7127 21.5164 26.1893L18.5581 28.3386C18.2648 28.5518 18.142 28.9295 18.2541 29.2743L19.384 32.7521C19.6346 33.5232 18.7521 34.1643 18.0962 33.6878L15.1378 31.5384C14.8445 31.3253 14.4473 31.3253 14.154 31.5384L11.1956 33.6878C10.5397 34.1643 9.65721 33.5232 9.90774 32.7521L11.0377 29.2743C11.1498 28.9295 11.027 28.5518 10.7337 28.3386L7.77534 26.1893C7.11945 25.7127 7.45653 24.6753 8.26727 24.6753H11.924C12.2866 24.6753 12.6079 24.4418 12.72 24.097L13.8499 20.6192Z" fill="#FFB028"/>
<path d="M11.5699 14.4152V12.9511L14.9908 9.78358C15.2817 9.50203 15.5257 9.24863 15.7228 9.02338C15.923 8.79814 16.0748 8.57759 16.178 8.36173C16.2812 8.14274 16.3328 7.90655 16.3328 7.65315C16.3328 7.37159 16.2687 7.12914 16.1404 6.9258C16.0122 6.71932 15.837 6.56134 15.6149 6.45185C15.3928 6.33923 15.1409 6.28291 14.8594 6.28291C14.5653 6.28291 14.3088 6.34235 14.0898 6.46123C13.8708 6.58011 13.7019 6.75061 13.583 6.97272C13.4641 7.19484 13.4047 7.45919 13.4047 7.76577H11.476C11.476 7.13696 11.6184 6.59106 11.903 6.12806C12.1877 5.66506 12.5866 5.30686 13.0997 5.05346C13.6127 4.80006 14.204 4.67336 14.8734 4.67336C15.5617 4.67336 16.1608 4.79537 16.6707 5.03938C17.1838 5.28027 17.5826 5.615 17.8673 6.04359C18.152 6.47218 18.2943 6.96334 18.2943 7.51706C18.2943 7.87996 18.2224 8.23816 18.0785 8.59167C17.9377 8.94517 17.6859 9.33779 17.323 9.7695C16.9601 10.1981 16.4486 10.7127 15.7885 11.3134L14.3854 12.6883V12.754H18.421V14.4152H11.5699Z" fill="#292D34"/>
</svg>
