<svg width="30" height="37" viewBox="0 0 30 37" fill="none" xmlns="http://www.w3.org/2000/svg">
<path d="M0 1.32143C0 0.591625 0.591625 0 1.32143 0H27.9702C28.7 0 29.2917 0.591625 29.2917 1.32143V14.0639C29.2917 14.6334 28.9268 15.1388 28.3863 15.3181L15.0619 19.7385C14.7918 19.8281 14.4999 19.8281 14.2298 19.7385L0.905351 15.3181C0.364838 15.1388 0 14.6334 0 14.0639V1.32143Z" fill="#50AFFF"/>
<path d="M2.75293 3.41365C2.75293 3.04874 3.04874 2.75293 3.41365 2.75293H25.8779C26.2428 2.75293 26.5386 3.04874 26.5386 3.41365V12.3964C26.5386 12.6753 26.3634 12.9242 26.1008 13.0184L14.8687 17.0436C14.7246 17.0952 14.567 17.0952 14.4229 17.0436L3.19075 13.0184C2.92814 12.9242 2.75293 12.6753 2.75293 12.3964V3.41365Z" fill="white"/>
<path d="M13.8497 20.6192C14.1002 19.8482 15.1911 19.8482 15.4416 20.6192L16.5716 24.097C16.6836 24.4418 17.005 24.6753 17.3675 24.6753H21.0243C21.835 24.6753 22.1721 25.7127 21.5162 26.1893L18.5578 28.3386C18.2645 28.5518 18.1418 28.9295 18.2538 29.2743L19.3838 32.7521C19.6343 33.5232 18.7518 34.1643 18.0959 33.6878L15.1376 31.5384C14.8442 31.3253 14.4471 31.3253 14.1537 31.5384L11.1954 33.6878C10.5395 34.1643 9.65696 33.5232 9.90749 32.7521L11.0375 29.2743C11.1495 28.9295 11.0268 28.5518 10.7335 28.3386L7.7751 26.1893C7.1192 25.7127 7.45629 24.6753 8.26702 24.6753H11.9238C12.2863 24.6753 12.6077 24.4418 12.7197 24.097L13.8497 20.6192Z" fill="#FFB028"/>
<path d="M14.9286 14.5466C14.2278 14.5466 13.6037 14.4261 13.0562 14.1852C12.5119 13.9412 12.0818 13.6065 11.7658 13.181C11.4529 12.7524 11.2918 12.2581 11.2825 11.6982H13.3284C13.3409 11.9328 13.4176 12.1393 13.5584 12.3176C13.7023 12.4928 13.8931 12.6289 14.1308 12.7258C14.3686 12.8228 14.6361 12.8713 14.9333 12.8713C15.243 12.8713 15.5167 12.8166 15.7545 12.7071C15.9922 12.5976 16.1784 12.4458 16.3129 12.2519C16.4474 12.0579 16.5147 11.8342 16.5147 11.5808C16.5147 11.3243 16.4427 11.0975 16.2988 10.9004C16.158 10.7002 15.9547 10.5438 15.6888 10.4312C15.426 10.3185 15.1132 10.2622 14.7503 10.2622H13.854V8.76998H14.7503C15.0569 8.76998 15.3275 8.7168 15.5621 8.61044C15.7998 8.50407 15.9844 8.35704 16.1158 8.16933C16.2472 7.9785 16.3129 7.75639 16.3129 7.50299C16.3129 7.2621 16.255 7.05093 16.1393 6.86949C16.0267 6.68491 15.8671 6.54101 15.6606 6.43777C15.4573 6.33453 15.2195 6.28291 14.9474 6.28291C14.6721 6.28291 14.4202 6.33297 14.1919 6.43308C13.9635 6.53006 13.7805 6.66927 13.6428 6.85072C13.5052 7.03216 13.4317 7.24489 13.4223 7.48891H11.4748C11.4842 6.93518 11.6422 6.44715 11.9488 6.02482C12.2554 5.60249 12.6683 5.27244 13.1876 5.03469C13.7101 4.7938 14.2998 4.67336 14.9567 4.67336C15.62 4.67336 16.2003 4.7938 16.6977 5.03469C17.1951 5.27557 17.5815 5.60093 17.8568 6.01074C18.1352 6.41743 18.2728 6.87418 18.2697 7.38098C18.2728 7.91906 18.1055 8.36799 17.7676 8.72775C17.4329 9.08751 16.9965 9.31589 16.4584 9.41287V9.48795C17.1654 9.57867 17.7035 9.82425 18.0726 10.2247C18.4449 10.622 18.6295 11.1194 18.6263 11.7169C18.6295 12.2644 18.4715 12.7509 18.1524 13.1763C17.8364 13.6018 17.4 13.9365 16.8432 14.1805C16.2863 14.4245 15.6481 14.5466 14.9286 14.5466Z" fill="#292D34"/>
</svg>
